<?xml version="1.0" encoding="UTF-8"?><svg id="Layer_1" xmlns="http://www.w3.org/2000/svg" viewBox="0 0 950 950"><defs><style>.cls-1{fill:#e6c366;}.cls-1,.cls-2,.cls-3,.cls-4,.cls-5,.cls-6{stroke-width:0px;}.cls-2{fill:#e6c470;}.cls-3{fill:#efede9;}.cls-4{fill:#984c4f;}.cls-5{fill:#aeaf73;}.cls-6{fill:#476b6f;}</style></defs><path class="cls-2" d="m950,805.1198v144.8802h-143.136c9.0928-6.3603,14.4531-17.3484,13.6973-30.2899-1.186-20.5809-30.569-24.4412-43.6384-22.3599-13.0578,2.0813-158.531-46.0105-158.531-46.0105,0,0,160.0193,19.5925,179.9143,21.9646,19.8832,2.372,24.9296-14.5462,10.9765-36.2201-13.8485-21.4995-69.475-98.5325-70.3471-99.7417,1.4418.9883,93.3465,64.1961,110.7298,73.9168,17.5112,9.7904,25.825,2.0813,24.6389-9.4998-1.186-11.5811-22.8599-182.5769-22.8599-182.5769,0,0,45.7198,132.9968,49.2779,141.6012,3.558,8.6161-5.337,18.7089,2.0814,39.7898,6.3719,18.0926,33.7666,22.6273,47.1965,4.5464Z"/><path class="cls-2" d="m950,695.8783v66.2193c-1.8139-3.7209-3.5115-7.1394-4.4533-10.2207-1.6279-5.3371,1.2092-31.3132,4.4533-55.9987Z"/><path class="cls-3" d="m353.1541,0c-7.2556,11.4997-37.8014,58.6148-66.0682,83.5096-32.3596,28.4992-107.7648,34.1387-107.7648,29.6853s5.3371-17.5112,11.8718-20.7786,73.0331-31.4643,87.87-45.7198c14.8484-14.2438,22.5692-31.1737,16.3368-34.1387-6.244-2.965-8.6161,3.2674-36.8131,23.7552-28.2086,20.4762-75.1144,37.1038-84.3118,37.6967-9.2091.593-29.697,43.6385-34.1504,49.2895-4.4533,5.6394-12.4648,5.3371-9.1974-.6047,3.2674-5.9301,26.1273-51.6499,32.3597-60.5566,6.2324-8.9068,32.0574-18.1042,54.3242-27.011,22.2669-8.9067,43.3478-23.7552,35.6271-26.4296s-46.9059,1.7791-58.7776,3.8604c-8.6859,1.5232-11.9764-5.5231-13.6974-12.5578h172.3911Z"/><path class="cls-3" d="m950,537.1613c-21.3483-13.023-49.2779-15.2554-49.2779-15.2554,26.7203-32.069,43.3478-66.4984,18.9996-119.3459-24.3366-52.8475-84.9049-83.1259-84.9049-83.1259,0,0,64.1264-108.6602,76.5911-158.531,12.4765-49.8709-10.6858-103.3115-108.6485-119.939C704.7851,24.3366,498.7553,0,498.7553,0h-111.1485c-14.0113,30.1853-53.7894,98.0325-95.672,121.904-46.5105,26.5226-119.1483,32.662-126.4737,32.662s-10.4881-4.3604-12.2671-4.3604-27.1156,13.8601-27.1156,13.8601c0,0,28.3016-3.3604,54.8242,4.9417,26.5226,8.3138,53.836,9.9068,57.7893,11.8835,3.9534,1.9766-8.7091,10.2904-22.9646,15.8252-14.2438,5.5464-26.9063,1.1976-39.5804-4.1511-12.6625-5.3487-33.4411-8.1161-48.0918-15.2438-14.6508-7.1161-25.9297-10.2905-38.5921-11.4765-12.6625-1.186-34.6387-15.2439-52.8476-21.7669-18.2089-6.5347-27.9063,1.7791-6.9301,11.2788,20.9878,9.4997,131.4271,48.2896,132.613,51.8592,1.186,3.558-27.3133,13.4532-57.3939,7.1161-30.0923-6.3254-49.0918-28.4992-60.5682-29.2899-7.9882-.5465-28.2667,4.465-44.3361,4.2208v168.3912c14.3601,8.651,39.9873,22.5343,56.6033,22.5343,24.1505,0,49.0918-61.7426,70.4634-81.5445,21.3716-19.7902,82.9282-36.0107,95.1953-38.3944,12.2671-2.3721,15.0461,10.2904,7.1277,16.4298-7.9184,6.1393-21.3716,12.0694-28.3016,27.1156-6.9301,15.0461-29.883,76.3935-72.8354,102.3231,91.2419,17.8135,142.6942,43.7432,183.4722,79.3585,40.7664,35.6271,56.9986,71.8471,67.289,74.4168,10.2905,2.5814,35.6271-2.5697,65.1147,8.3138,29.4877,10.8951,56.9986,20.7902,71.6494,28.8946,14.6392,8.1161,60.359,37.0107,63.731,42.5571,3.3604,5.5464-20.5925,3.558-30.0923,6.7324-9.4997,3.1628-36.0224,16.8252-73.0331,10.8834-36.999-5.9417-68.6727-27.1156-78.5678-33.6503-1.9767-.7907,4.9533,23.3599,4.151,42.7548-.7907,19.3949-5.337,30.0807-5.7324,32.4527-.3953,2.3836,3.3604,64.231,19.9879,98.9627,16.6275,34.7317,51.9522,65.9054,57.301,70.3588,5.337,4.4533-16.0345,14.5462-65.6147,2.965-49.5802-11.5695-61.7544-72.1377-63.231-78.6725-1.4884-6.5231-20.4879,13.3602-52.5452,25.8366-32.069,12.4648-59.0799,16.0228-59.0799,16.0228,0,0-11.1858,35.9294-43.6385,51.9638-32.4643,16.0229-70.9517,9.1975-66.9518,5.4883,4.0115-3.7092,49.7313-19.7437,73.1842-50.3244-2.0813-3.7092-7.2788-6.8254-7.2788-6.8254,0,0-45.4175,23.8948-99.0092,33.1039l-10.2323-28.9528s93.2186-19.732,102.7184-23.1506c9.4998-3.4185,8.6045-13.6508-3.4185-13.6508s-78.5213,0-101.5323,8.0114c-2.0814-18.7088.8953-33.6968.8953-33.6968,0,0,48.6849-5.6394,70.3588-4.0115,21.6739,1.6395,35.4759,10.0928,38.5921,1.9302,3.1162-8.1626-19.4414-22.1158-48.0918-28.3482-28.6505-6.2325-40.3828-1.9302-43.3478-6.2325-2.965-4.3022,13.9531-26.5691,46.0105-24.3482,32.069,2.2325,67.2426,30.2783,82.8352,62.3473,10.3835,22.1157,16.9182,22.418,36.6619,16.174,19.7437-6.2324,55.6614-16.9647,83.277-56.0568,27.604-39.0921,27.3133-79.1608,10.6858-132.3107-16.3717-52.3127-38.4758-65.4984-39.1735-65.8937.186.8139,8.8719,37.9409,6.5114,59.6613-2.372,21.9762-6.8254,26.4296-4.744,40.0804,2.0813,13.6508,7.4184,23.453,2.6743,23.7552-4.7557.2907-50.1732-40.3827-71.2541-98.8696-16.3252-43.3362-12.4648-82.4166-18.6972-89.149-6.2441-6.7324-80.7539-30.7784-117.8693-34.0457,38.8944,37.6967,39.1967,56.4405,52.2545,96.2069,13.0579,39.7548,37.7084,70.3355,41.2665,73.6028s-47.2082-5.3487-99.7534-59.9636c-52.5452-54.6266-51.0569-114.8925-70.9517-135.3805-8.3835-8.6277-22.0344-16.4182-35.034-22.5459v132.5897c6.837,36.4177,16.4647,94.3233,27.3133,179.3096,16.6275,131.2177,29.0923,168.6354,71.254,196.5417,42.1501,27.9063,122.904-11.8834,223.2504-71.254,0,0,53.4406,96.7767,127.0667,96.7767,54.0219,0,78.9632-29.6853,78.9632-29.6853,0,0,3.2557,34.9758,16.8252,52.8475h162.0193c17.581-4.0929,37.6968-8.3137,46.5803-8.5114,9.8603-.2209,12.9997,4.4301,17.5228,8.5114h36.0689c9.0928-6.3603,14.4531-17.3484,13.6973-30.2899-1.186-20.5809-30.569-24.4412-43.6384-22.3599-13.0578,2.0813-158.531-46.0105-158.531-46.0105,0,0,160.0193,19.5925,179.9143,21.9646,19.8832,2.372,24.9296-14.5462,10.9765-36.2201-13.8485-21.4995-69.475-98.5325-70.3471-99.7417,1.4418.9883,93.3465,64.1961,110.7298,73.9168,17.5112,9.7904,25.825,2.0813,24.6389-9.4998-1.186-11.5811-22.8599-182.5769-22.8599-182.5769,0,0,45.7198,132.9968,49.2779,141.6012,3.558,8.6161-5.337,18.7089,2.0814,39.7898,6.3719,18.0926,33.7666,22.6273,47.1965,4.5464v-43.0222c-1.8139-3.7209-3.5115-7.1394-4.4533-10.2207-1.6279-5.3371,1.2092-31.3132,4.4533-55.9987v-158.7171Zm-139.3338,173.1586c-9.4998,8.7091-108.4509-19.3949-113.2066-20.9879-4.744-1.5813-56.9986-102.1254-99.7417-131.4153-42.7548-29.29-101.7301-14.2438-176.9375-36.8131-75.2191-22.5575-95.0093-76.3935-110.0438-143.2872-15.0461-66.8937-25.4412-74.3237-30.1853-85.0095-4.7557-10.6858-6.6859-29.383-11.5811-41.7083-4.8953-12.3253-7.3487-18.4531-3.1163-17.6624,4.8022.8836,6.2906,1.6859,49.6268,10.1857,43.3477,8.5114,64.5217,15.0461,79.9631,38.0107,15.4299,22.953,36.8131,47.1035,103.3115,10.2905,66.4984-36.8131,154.2287-127.6597,173.9725-147.5546,19.732-19.8832,48.5337-47.4988,51.6499-46.6035,3.1162.8837,3.2674,51.2081,0,55.2196-3.2674,3.9999-43.7896,30.2783-56.9986,42.7431-13.209,12.4765,4.8953,27.4645,15.2904,23.453,10.3951-3.9999,31.1737-25.6738,33.3945-25.6738,2.2326,0,3.5697,6.8254.8953,17.5112s-12.3253,38.3014-14.395,40.5222c-2.0813,2.2326-46.0222,15.8834-64.4286,19.1507-18.4065,3.2674-17.36,26.8714,1.9302,25.0924,19.3019-1.7907,45.278-10.0928,44.2315-6.837-1.0348,3.2674-14.5461,32.0689-16.767,34.1503-2.2325,2.0697-48.243,9.0463-72.7424,8.4533-24.4878-.593-23.1506,20.1855-13.0578,25.2319,10.0928,5.0464,52.9987,1.9302,56.8475,1.9302,3.8603,0,5.651,1.7906,4.4533,3.1162-1.186,1.3371-29.976,35.4875-31.9062,36.0805-1.9302.593-59.8241-2.0813-77.0446-11.8834-17.2206-9.7904-32.2085-10.0928-27.9063,8.616,4.3022,18.6972,30.2783,23.1506,52.6963,27.011,22.4181,3.8604,17.9647,4.8952,12.3253,8.7556-5.6394,3.8604-26.2785,12.4765-24.9413,19.5926,1.3372,7.1277,11.8718,3.8138,11.8718,3.8138,0,0,23.3599,25.3366,93.4163,98.172,70.0681,72.8238,162.6937,153.5777,159.1241,158.3334Z"/><path class="cls-6" d="m544.6727,950H0v-424.5361c6.837,36.4177,16.4647,94.3233,27.3133,179.3096,16.6275,131.2177,29.0923,168.6354,71.254,196.5417,42.1501,27.9063,122.904-11.8834,223.2504-71.254,0,0,53.4406,96.7767,127.0667,96.7767,54.0219,0,78.9632-29.6853,78.9632-29.6853,0,0,3.2557,34.9758,16.8252,52.8475Z"/><path class="cls-6" d="m950,0v537.1613c-21.3483-13.023-49.2779-15.2554-49.2779-15.2554,26.7203-32.069,43.3478-66.4984,18.9996-119.3459-24.3366-52.8475-84.9049-83.1259-84.9049-83.1259,0,0,64.1264-108.6602,76.5911-158.531,12.4765-49.8709-10.6858-103.3115-108.6485-119.939C704.7851,24.3366,498.7553,0,498.7553,0h451.2447Z"/><path class="cls-2" d="m770.7951,950h-64.1031c17.581-4.0929,37.6968-8.3137,46.5803-8.5114,9.8603-.2209,12.9997,4.4301,17.5228,8.5114Z"/><path class="cls-5" d="m549.4168,646.3912c-9.4997,3.1628-36.0224,16.8252-73.0331,10.8834-36.999-5.9417-68.6727-27.1156-78.5678-33.6503-1.9767-.7907,4.9533,23.3599,4.151,42.7548-.7907,19.3949-5.337,30.0807-5.7324,32.4527-.3953,2.3836,3.3604,64.231,19.9879,98.9627,16.6275,34.7317,51.9522,65.9054,57.301,70.3588,5.337,4.4533-16.0345,14.5462-65.6147,2.965-49.5802-11.5695-61.7544-72.1377-63.231-78.6725-1.4884-6.5231-20.4879,13.3602-52.5452,25.8366-32.069,12.4648-59.0799,16.0228-59.0799,16.0228,0,0-11.1858,35.9294-43.6385,51.9638-32.4643,16.0229-70.9517,9.1975-66.9518,5.4883,4.0115-3.7092,49.7313-19.7437,73.1842-50.3244-2.0813-3.7092-7.2788-6.8254-7.2788-6.8254,0,0-45.4175,23.8948-99.0092,33.1039l-10.2323-28.9528s93.2186-19.732,102.7184-23.1506c9.4998-3.4185,8.6045-13.6508-3.4185-13.6508s-78.5213,0-101.5323,8.0114c-2.0814-18.7088.8953-33.6968.8953-33.6968,0,0,48.6849-5.6394,70.3588-4.0115,21.6739,1.6395,35.4759,10.0928,38.5921,1.9302,3.1162-8.1626-19.4414-22.1158-48.0918-28.3482-28.6505-6.2325-40.3828-1.9302-43.3478-6.2325-2.965-4.3022,13.9531-26.5691,46.0105-24.3482,32.069,2.2325,67.2426,30.2783,82.8352,62.3473,10.3835,22.1157,16.9182,22.418,36.6619,16.174,19.7437-6.2324,55.6614-16.9647,83.277-56.0568,27.604-39.0921,27.3133-79.1608,10.6858-132.3107-16.3717-52.3127-38.4758-65.4984-39.1735-65.8937.186.8139,8.8719,37.9409,6.5114,59.6613-2.372,21.9762-6.8254,26.4296-4.744,40.0804,2.0813,13.6508,7.4184,23.453,2.6743,23.7552-4.7557.2907-50.1732-40.3827-71.2541-98.8696-16.3252-43.3362-12.4648-82.4166-18.6972-89.149-6.2441-6.7324-80.7539-30.7784-117.8693-34.0457,38.8944,37.6967,39.1967,56.4405,52.2545,96.2069,13.0579,39.7548,37.7084,70.3355,41.2665,73.6028s-47.2082-5.3487-99.7534-59.9636c-52.5452-54.6266-51.0569-114.8925-70.9517-135.3805-8.3835-8.6277-22.0344-16.4182-35.034-22.5459v-35.2201c14.3601,8.651,39.9873,22.5343,56.6033,22.5343,24.1505,0,49.0918-61.7426,70.4634-81.5445,21.3716-19.7902,82.9282-36.0107,95.1953-38.3944,12.2671-2.3721,15.0461,10.2904,7.1277,16.4298-7.9184,6.1393-21.3716,12.0694-28.3016,27.1156-6.9301,15.0461-29.883,76.3935-72.8354,102.3231,91.2419,17.8135,142.6942,43.7432,183.4722,79.3585,40.7664,35.6271,56.9986,71.8471,67.289,74.4168,10.2905,2.5814,35.6271-2.5697,65.1147,8.3138,29.4877,10.8951,56.9986,20.7902,71.6494,28.8946,14.6392,8.1161,60.359,37.0107,63.731,42.5571,3.3604,5.5464-20.5925,3.558-30.0923,6.7324Z"/><path class="cls-5" d="m353.1541,0c-7.2556,11.4997-37.8014,58.6148-66.0682,83.5096-32.3596,28.4992-107.7648,34.1387-107.7648,29.6853s5.3371-17.5112,11.8718-20.7786,73.0331-31.4643,87.87-45.7198c14.8484-14.2438,22.5692-31.1737,16.3368-34.1387-6.244-2.965-8.6161,3.2674-36.8131,23.7552-28.2086,20.4762-75.1144,37.1038-84.3118,37.6967-9.2091.593-29.697,43.6385-34.1504,49.2895-4.4533,5.6394-12.4648,5.3371-9.1974-.6047,3.2674-5.9301,26.1273-51.6499,32.3597-60.5566,6.2324-8.9068,32.0574-18.1042,54.3242-27.011,22.2669-8.9067,43.3478-23.7552,35.6271-26.4296s-46.9059,1.7791-58.7776,3.8604c-8.6859,1.5232-11.9764-5.5231-13.6974-12.5578H0v189.2628c16.0694.2442,36.3479-4.7673,44.3361-4.2208,11.4765.7907,30.476,22.9646,60.5682,29.2899,30.0807,6.3371,58.58-3.558,57.3939-7.1161-1.186-3.5696-111.6252-42.3594-132.613-51.8592-20.9762-9.4997-11.2788-17.8135,6.9301-11.2788,18.2088,6.5231,40.1851,20.5809,52.8476,21.7669,12.6624,1.186,23.9412,4.3604,38.5921,11.4765,14.6508,7.1277,35.4293,9.8951,48.0918,15.2438,12.6741,5.3487,25.3366,9.6975,39.5804,4.1511,14.2555-5.5348,26.918-13.8485,22.9646-15.8252-3.9533-1.9767-31.2667-3.5697-57.7893-11.8835-26.5226-8.3021-54.8242-4.9417-54.8242-4.9417,0,0,25.3366-13.8601,27.1156-13.8601s4.9417,4.3604,12.2671,4.3604,79.9632-6.1394,126.4737-32.662c41.8826-23.8715,81.6608-91.7187,95.672-121.904h-34.4527ZM11.1392,52.1964c-6.0929-20.3368,8.2789-35.1271,31.6155-31.9178,31.3132,4.3022,46.6035,36.5107,26.1273,51.9522-20.4879,15.4414-51.6615.3023-57.7428-20.0344Zm58.0335,77.1841c-37.8479,4.3022-52.5452-12.7671-36.0689-16.6275,16.4763-3.8604,37.7084-9.6509,60.5683-34.8829,22.8599-25.232,29.9411-50.8127,35.7666-52.6964,4.7557-1.5349,10.6857.1512,12.8717,4.9069,2.1744,4.7441,0,12.2671-6.7324,29.883-6.7324,17.6158-28.5458,65.1147-66.4053,69.4169Z"/><path class="cls-3" d="m135.5781,59.9637c-6.7324,17.6158-28.5458,65.1147-66.4053,69.4169-37.8479,4.3022-52.5452-12.7671-36.0689-16.6275,16.4763-3.8604,37.7084-9.6509,60.5683-34.8829,22.8599-25.232,29.9411-50.8127,35.7666-52.6964,4.7557-1.5349,10.6857.1512,12.8717,4.9069,2.1744,4.7441,0,12.2671-6.7324,29.883Z"/><path class="cls-3" d="m68.882,72.2308c-20.4879,15.4414-51.6615.3023-57.7428-20.0344-6.0929-20.3368,8.2789-35.1271,31.6155-31.9178,31.3132,4.3022,46.6035,36.5107,26.1273,51.9522Z"/><path class="cls-4" d="m651.5422,551.9865c-70.0564-72.8354-93.4163-98.172-93.4163-98.172,0,0-10.5346,3.3139-11.8718-3.8138-1.3372-7.1161,19.3018-15.7322,24.9413-19.5926,5.6394-3.8604,10.0928-4.8952-12.3253-8.7556-22.418-3.8604-48.3942-8.3138-52.6963-27.011-4.3022-18.7088,10.6857-18.4065,27.9063-8.616,17.2205,9.8021,75.1144,12.4764,77.0446,11.8834,1.9302-.5929,30.7202-34.7433,31.9062-36.0805,1.1977-1.3256-.593-3.1162-4.4533-3.1162-3.8487,0-46.7547,3.1162-56.8475-1.9302-10.0928-5.0463-11.43-25.8249,13.0578-25.2319,24.4994.5929,70.5099-6.3836,72.7424-8.4533,2.2209-2.0814,15.7322-30.883,16.767-34.1503,1.0465-3.2557-24.9296,5.0463-44.2315,6.837-19.2902,1.779-20.3367-21.8251-1.9302-25.0924,18.4065-3.2674,62.3473-16.9182,64.4286-19.1507,2.0698-2.2208,11.7207-29.8364,14.395-40.5222s1.3372-17.5112-.8953-17.5112c-2.2208,0-22.9994,21.6739-33.3945,25.6738-10.3951,4.0115-28.4993-10.9765-15.2904-23.453,13.209-12.4648,53.7313-38.7432,56.9986-42.7431,3.2674-4.0115,3.1162-54.3359,0-55.2196-3.1162-.8953-31.9178,26.7203-51.6499,46.6035-19.7438,19.8948-107.4741,110.7415-173.9725,147.5546-66.4984,36.813-87.8816,12.6625-103.3115-10.2905-15.4414-22.9646-36.6154-29.4993-79.9631-38.0107-43.3362-8.4998-44.8245-9.3021-49.6268-10.1857-4.2324-.7907-1.779,5.337,3.1163,17.6624,4.8952,12.3253,6.8254,31.0225,11.5811,41.7083,4.7441,10.6858,15.1392,18.1158,30.1853,85.0095,15.0345,66.8937,34.8247,120.7296,110.0438,143.2872,75.2075,22.5693,134.1827,7.5231,176.9375,36.8131,42.7432,29.29,94.9977,129.834,99.7417,131.4153,4.7557,1.593,103.7068,29.697,113.2066,20.9879,3.5696-4.7557-89.056-85.5096-159.1241-158.3334Zm-274.3072-226.0294c-13.0694,34.8364-48.0918,30.6853-59.1846,21.9762-11.0811-8.7091-.593-26.7203,8.9068-18.4065,9.4997,8.3138,24.3482,8.1161,28.1039-10.2904,2.4534-11.9997-.8139-22.7436-8.2672-29.9644.6162,1.5581.9535,3.2442.9535,5.0231,0,7.5463-6.1161,13.6508-13.6625,13.6508-7.5347,0-13.6509-6.1045-13.6509-13.6508,0-6.5464,4.5929-12.0114,10.7323-13.3485-17.2438-4.4301-15.6275-16.1624-7.1743-19.9065,30.0807-12.2671,66.3007,30.0923,53.2429,64.917Zm60.7543,76.9982c-16.8136-23.7552-5.1395-52.2196,16.0345-52.4522,18.2089-.1977,32.4643,11.6741,33.4527,39.5804.9883,27.9063-32.662,36.6154-49.4872,12.8718Z"/><path class="cls-3" d="m487.4765,390.0835c.9883,27.9063-32.662,36.6154-49.4872,12.8718-16.8136-23.7552-5.1395-52.2196,16.0345-52.4522,18.2089-.1977,32.4643,11.6741,33.4527,39.5804Z"/><path class="cls-3" d="m377.235,325.9571c-13.0694,34.8364-48.0918,30.6853-59.1846,21.9762-11.0811-8.7091-.593-26.7203,8.9068-18.4065,9.4997,8.3138,24.3482,8.1161,28.1039-10.2904,2.4534-11.9997-.8139-22.7436-8.2672-29.9644l-.0116-.0116c-2-5.058-6.9301-8.6277-12.6973-8.6277-1,0-1.9767.1047-2.9185.314-17.2438-4.4301-15.6275-16.1624-7.1743-19.9065,30.0807-12.2671,66.3007,30.0923,53.2429,64.917Z"/><path class="cls-1" d="m347.7473,294.2951c0,7.5463-6.1161,13.6508-13.6625,13.6508-7.5347,0-13.6509-6.1045-13.6509-13.6508,0-6.5464,4.5929-12.0114,10.7323-13.3485.9418-.2093,1.9185-.314,2.9185-.314,5.7673,0,10.6974,3.5697,12.6973,8.6277l.0116.0116c.6162,1.5581.9535,3.2442.9535,5.0231Z"/></svg>