<?xml version="1.0" encoding="utf-8"?>
<!-- Generator: Adobe Illustrator 27.5.0, SVG Export Plug-In . SVG Version: 6.00 Build 0)  -->
<svg version="1.1" id="_x2DC_รรฐ_x5F_1" xmlns="http://www.w3.org/2000/svg" xmlns:xlink="http://www.w3.org/1999/xlink" x="0px"
	 y="0px" viewBox="0 0 2400 1900" style="enable-background:new 0 0 2400 1900;" xml:space="preserve">
<rect x="129" y="10" style="fill:#FFFFFF;" width="2153" height="1883"/>
<g>
	<g>
		<path d="M1858.499,135.079h307.058c0.411,33.905-0.205,68.068-0.085,102.09c0.076,21.734-0.01,43.162-0.015,65.009
			c-0.066,316.915,0.273,633.824,0.082,950.737c9.434,10.919,17.962,16.793,20.508,32.071c5.1,30.604,3.292,66.058,6.841,97.264
			c8.364-1.515,16.265,1.833,24.111,2.181c9.346,0.415,40.03-4.424,44.445,1.946c1.064,1.536-0.816,8.482-1.244,8.482h-67.3
			c3.457,4.694,1.115,26.379,2.093,27.351c0.928,0.923,24.781-3.225,21.02,9.378c-1.814,6.081-19.675,1.873-21.02,3.22
			c-1.12,1.122,1.45,13.759-0.283,16.536c-1.439,2.306-20.949,3.575-22.613,2.165c-2.746-2.327-1.39-18.691-2.331-18.691h-35.753
			l53.675,48.336c3.373,6.676-5.375,7.628-10.683,4.355c-10.066-6.207-35.349-29.757-45.114-38.996
			c-4.428-4.189-10.222-7.384-6.29-13.695h-77.816l122.124,112.366c3.138,3.825,3.129,8.697-1.24,11.726
			c-3.967-0.332-6.541-2.99-9.457-5.227c-28.997-22.245-64.678-58.409-92.529-84.133c-5.142-4.75-32.219-34.731-34.672-34.731
			h-47.321c-0.916,3.67,1.518,4.204,3.141,6.323c22.433,29.289,65.38,63.56,92.607,90.365
			c29.677,29.217,58.615,59.205,88.221,88.443c4.606,4.549,17.063,11.171,17.617,18.182c0.191,2.418-3.074,6.356-4.917,6.52
			c-3.676,0.327-30.208-29.964-35.733-35.323c-57.332-55.613-115.771-109.85-171.566-167.086c-1.893-1.942-3.932-6.62-4.527-6.968
			c-2.091-1.224-17.719-0.743-21.679-0.458c-2.296,0.165-7.004-1.166-5.208,3.128c2.653,6.345,25.808,23.296,30.491,32.62
			c1.875,3.734,0.423,3.958-2.153,6.314c-9.707,2.508-34.155-36.897-43.117-40.97c-4.099-1.863-11.195-1.455-15.776-1.082
			c-3.12,0.255-6.079-1.666-5.199,3.117l259.749,278.666c2.405,2.831,14.895,17.327,4.152,16.993
			c-7.094-0.22-19.657-19.466-25.183-25.406c-84.803-91.154-172.222-179.88-254.509-273.379h-70.455
			c4.432,11.237,12.275,22.455,18.87,32.657c55.333,85.597,110.289,171.451,165.786,256.942c4.234,6.263,8.589,15.441-2.643,15.454
			c-66.799-101.059-129.435-204.987-197.787-305.052h-85.177c0.43,4.881,3.664,9.708,5.945,14.034
			c50.732,96.226,110.872,192.042,159.196,288.771c2.578,5.161,12.558,20.902-0.062,19.108l-177.698-321.913h-75.713l-4.272,22.179
			c21.545,64.855,50.107,128.926,76.898,192.274c14.871,35.163,36.872,75.988,48.873,110.956c2.243,6.534,6.151,13.569-2.731,14.77
			l-125.1-291.794c-2.747-0.611-2.49,2.176-3.107,4.184c-2.167,7.054-3.422,26.873-9.466,30.518
			c-4.327,2.609-17.412,2.125-20.003-3.151c-5.953-12.119,12.913-63.458,11.569-79.936h-52.578c-1.713,0,3.17,24.012-21.623,18.448
			c-14.969-3.36-3.627-17.79-5.739-20.549c-3.351,3.45-13.604-0.436-12.393,5.02l135.65,362.948
			c3.172,7.344-4.908,12.345-9.408,5.078l-136.963-370.944h-35.753c4.888,22.612,19.594,50.957,22.684,73.082
			c0.659,4.716,1.778,10.396-4.781,11.037l-28.419-84.119h-34.702c-0.482,0-2.802-3.998-3.172-1.035l102.756,363.386
			c-2.266,5.333-6.461,6.829-10.232,2.037l-104.04-362.319c-1.554-2.304-3.911-1.902-6.226-2.186
			c-24.1-2.955-54.199,2.427-78.981,0.127c1.292,11.659,3.188,19.825-11.642,19.099c-12.398-0.607-15.743-12.719-25.599-18.677
			l-57.416-2.546c1.321,22.041,1.083,44.287,2.027,66.346c5.215,121.795,13.76,243.826,16.823,365.946
			c0.199,7.916,7.941,29.103-8.355,22.872c-2.309-41.145-2.083-82.655-4.088-123.995c-4.136-85.283-10.442-171.293-14.787-256.518
			c-1.206-23.646-0.894-47.537-2.428-71.19c-0.447-1.374-1.289-2.656-2.76-2.916c-2.898-0.512-18.936,1.981-25.417,1.656
			c-13.2-0.661-27.083-3.941-40.924-2.19v157.736c0,0.42-6.904-0.278-8.403,0.01l-2.102-157.756l-14.743,0
			c-4.427,67.812-12.837,135.325-18.901,202.981c-4.258,47.517-5.975,95.484-10.569,142.96c-0.775,8.004-2.833,25.632-12.233,14.421
			l31.197-360.352h-66.249c-1.526,0-2.813,3.512-3.134,5.278c-4.177,22.995-5.31,49.663-8.732,73.29
			c-14.313,98.82-25.883,202.808-44.479,300.436c-1.64,8.611-2.095,27.847-14.136,21.563
			c16.679-124.129,39.743-247.955,54.409-372.474c0.561-4.762,4.864-26.542-0.662-27.555l-114.495-0.315
			c-17.375,86.089-32.565,172.757-51.716,258.489c-4.18,18.71-8.648,50.526-15.169,66.854c-2.997,7.503-7.44,11.007-11.04,1.673
			l65.079-327.245c-24.269,4.547-49.18,0.157-73.688,3.071L710.223,1785.03c-3.949,7.328-6.366,27.58-16.773,16.642l119.293-359.995
			l-2.631-6.84c-8.169,6.334-15.907,20.708-27.114,20.865c-17.431,0.244-7.09-20.882-9.719-20.882h-48.372
			c0.171,2.721-0.515,5.281-1.656,7.726c-28.599,61.312-55.74,123.362-84.87,184.414c-19.241,40.324-45.33,104.278-68.703,139.508
			c-3.74,5.637-7.129,10.737-13.03,3.758c54.706-110.683,108.013-222.282,157.743-335.406h-76.765
			c-64.061,105.431-119.083,216.39-183.002,321.772c-7.315-0.883-5.917-8.398-2.901-13.451
			c59.057-102.214,113.007-207.462,174.335-308.299c-23.717-4.687-14.444,11.252-19.886,19c-3.827,5.448-67.594-0.75-78.95,3.072
			l-198.934,272.16c-3.558,7.546-15.302,11.743-13.445,1.4l201.853-276.725h-53.63c-4.189,0-14.405-7.615-17.884-5.411
			c-43.302,51.233-91.697,97.692-137.778,146.292c-37.178,39.212-73.087,79.773-110.33,118.912
			c-2.978,3.129-19.32,20.518-22.105,19.915c-3.835-0.829-4.404-9.081-1.192-11.676l257.763-272.219
			c3.227-4.387,8.015-8.684,7.34-14.742h-53.63l-229.186,220.879c-9.8,10.84-22.981,9.853-10.877-5.614l224.29-213.162H311.64
			c-5.813,0-7.281,2.045-12.561,6.374c-45.59,37.373-91.783,85.753-138.883,119.794c-5.768,4.168-11.472,7.376-11.228-2.778
			c46.381-43.744,97.674-82.424,144.795-125.493h-79.919c1.785,4.109,3.726,7.969,0.153,11.705l-57.026,43.937l-10.417,1.132
			c-0.921-4.256,0.952-5.615,3.053-8.493c11.607-15.893,46.614-31.448,60.03-48.281h-64.146c-3.588,0-5.919-12.619,2.103-12.619
			h154.581c-0.882-8.251-12.608-11.542-17.851-16.851c-23.981-24.281-24.483-72.022-11.532-101.915l-0.072-121.003l10.527,0.011
			v109.363c11.936-9.354,24.325-15.083,39.941-14.741l-2.99-75.839c-2.708-11.345-25.483-27.683-36.391-30.907
			c-6.399-1.891-22.165,1.579-16.131-9.095l16.646-6.134c-9.51-6.847-20.27-13.505-32.611-12.618
			c4.934-16.902,25.55-8.325,37.836-7.34c-13.85-10.821-31.967-13.091-48.357-17.912c1.998-5.778,8.145-7.133,13.658-6.439
			l32.597,9.628c-10.129-7.646-21.175-14.7-32.863-19.715c-3.928-1.685-25.825-5.085-21.795-10.752
			c10.274-6.007,20.825-4.392,32.404-4.066l28.562,11.399c-19.24-16.614-46.069-25.742-71.496-24.197v314.419
			c0,2.627-9.269,7.554-10.618-4.104l-0.944-339.854c-9.86-3.486-2.13-3.611,0.102-10.311c1.16-3.48,1.122-7.037,0.958-10.625
			c-5.237,2.883-24.783-3.985-15.378-8.377c8.648-4.038,18.59,3.701,15.373-12.664c-3.594,0.29-25.363,0.559-25.268-3.166
			c0.223-8.801,20.879-5.887,22.905-7.597c0.955-0.806,4.482-11.6-1.965-11.542c-4.328,0.039-25.418,3.062-27.219,1.273
			c-1.421-14.187,20.297-8.366,28.075-10.813c5.083-1.599,5.01-10.446,0.052-11.898c-3.986-1.168-31.918,4.382-34.456,1.682
			c-0.28-0.297-0.331-7.418,0.269-8.158c1.592-1.964,32.549-5.397,37.588-4.463c3.078-2.66-7.381-8.402-9.454-8.402h-38.908
			c-2.71-6.14,7.108-10.516,11.567-10.516h34.702c3.268-3.49-10.033-8.413-11.567-8.413h-43.114
			c-1.44-6.746,3.959-9.529,9.599-10.381c15.449-2.335,32.199,0.846,47.186,4.051c-14.518-13.89-39.712-13.859-58.877-14.712
			c2.563-20.547,35.003-6.564,48.361-4.216c-2.883-12.346-42.874-13.817-44.146-17.876c-3.489-11.135,19.796-6.533,25.208-7.362
			l-23.054-11.615l-2.163-7.281c2.543-2.478,27.705,5.925,16.27-2.73c-6.701-5.072-12.135-4.33-9.96-16.198
			c11.173-0.19,16.447,7.727,23.103,14.71c-1.062-7.816-8.093-13.263-6.318-22.018c10.733-6.016,15.717,14.408,18.984,22.003
			l1.544-18.386l3.66-4.629c1.125,1.479,3.996,1.463,4.819,2.52c5.241,6.738,10.904,45.635,15.212,56.251
			c3.6,0.536,2.236-4.988,2.047-7.298c-1.152-14.118-8.172-28.486-6.266-43.154l8.568,3.504l14.579,72.186l2.167-20.055
			l-4.285-45.141c2.28,0.401,6.872-0.796,8.166,0.258c5.162,4.203,10.579,80.968,8.671,92.281l4.185-13.66v-64.146
			c19.595-0.594,10.869,20.465,12.64,33.64l2.093-14.705c13.011-0.174,19.022,8.459,24.119,18.977l24.228,13.628
			c-9.176-12.339-19.121-24.317-30.428-34.77c-10.308-9.53-24.921-16.928-32.677-28.325c-1.538-8.109,14.988,2.152,17.49,3.552
			c16.489,9.227,32.308,23.336,43.5,38.523c3.645,4.946,5.673,12.303,10.521,15.737c-6.105-21.268-24.089-42.555-41.036-56.728
			c-7.566-6.328-27.657-16.664-32.483-22.198c-10.865-12.458,9.452-5.564,16.577-1.855c16.475,8.575,28.47,22.54,42.221,34.522
			c-7.78-17.005-22.073-32.604-35.708-45.242c-5.026-4.659-20.717-11.925-18.948-18.87c2.224-8.733,23.023,8.895,26.222,11.596
			c16.801,14.189,27.842,33.188,41.053,50.413c-3.7-12.059-13.045-24.653-20.137-35.575c-9.053-13.943-28.151-35.213-34.172-47.849
			c-1.451-3.046-3.197-5.364-2.444-9.103c8.741-8.742,36.743,41.311,42.031,46.258l-26.96-64.537
			c-0.652-2.184,4.236-6.922,4.897-6.929c7.51-0.083,27.049,56.2,31.586,65.118c1.236,2.429,1.949,5.825,5.199,6.347l-26.648-86.956
			c-0.005-4.315,3.308-8.023,7.502-5.343c2.679,1.712,10.602,29.367,12.606,34.714c1.004,2.677,0.467,6.452,4.436,7.109
			c1.43-11.863-8.819-49.127-6.028-57.528c1.414-4.255,6.281-3.804,10.158-3.374l8.49,44.067
			c1.919-12.482,1.284-30.543,5.208-42.124c2.947-8.695,10.483-9.29,11.732,1.01c1.908,15.736-4.969,37.326-4.278,53.732
			l15.759-35.734c18.689-7.766,1.992,19.615-1.098,28.345c-4.964,14.025-10.143,28.401-12.56,43.152
			c6.435-5.984,25.56-47.88,29.669-50.211c3.496-1.983,7.991,0.68,8.322,5.03c0.602,7.917-34.449,51.338-35.889,64.109
			c11.061-7.674,33.002-42.354,43.998-45.406c2.819-0.783,5.949-0.364,6.463,2.337c0.861,4.521-31.071,36.22-36.605,43.276
			c-8.195,10.449-17.638,23.214-22.269,35.546c19.635-20.143,36.967-48.582,67.269-52.567c-0.28,2.247,0.57,5.087,0.093,7.05
			c-0.326,1.34-18.817,11.943-22.999,15.239c-6.595,5.198-13.331,10.514-19.196,16.558c-8.801,9.069-22.615,24.953-25.167,36.854
			c15.993-17.071,37.182-41.424,60.852-47.439c10.911-2.773,12.186,1.294,3.781,7.988c-4.906,3.907-11.603,6.473-16.944,10.397
			c-21.705,15.949-42.659,35.849-54.009,60.591c3.395,3.499,25.794-27.177,29.413-30.505c9.622-8.85,34.118-25.893,47.303-24.189
			c4.958,7.891-10.741,11.122-16.418,15.112c-18.914,13.295-42.63,34.812-54.937,54.427c-5.155,8.216-5.793,15.085,3.46,5.563
			c18.53-19.07,37.086-43.756,64.641-51.037c2.817-0.744,7.835-2.8,6.414,2.203c-2.247,7.916-16.573,12.139-22.957,17.013
			c-17.614,13.449-38.321,32.073-50.223,50.727c-1.796,2.815-6.838,7.722-3.561,11.161c13.9-13.024,26.685-28.77,42.429-39.594
			c3.96-2.722,23.857-17.811,23.909-5.595c0.024,5.607-15.031,11.764-20.007,15.807c-6.939,5.637-18.15,15.618-24.298,21.971
			c-3.884,4.013-24.579,26.572-20.96,30.545c7.81-0.596,10.498-9.939,15.664-14.81c9.404-8.868,22.221-15.723,30.461-25.824
			l5.316-1.351c9.239,21.333,15.444,44.703,30.55,63.026c-4.058-13.95-13.27-25.947-18.405-39.41
			c-2.064-5.412-9.496-28.804-8.578-32.731c0.835-3.572,7.441-7.505,10.155-5.667c1.876,1.27,9.166,35.951,12.07,43.678
			c1.403,3.733,3.067,11.486,6.861,13.088c-3.43-12.631-19.526-76.651-10.612-83.179c1.555-1.139,5.888-1.429,6.414-0.944
			c2.214,2.04,7.282,50.923,8.804,59.568c0.634,3.602,0.638,12.651,3.806,14.041c1.879-23.498-4-46.93-2.053-70.416
			c0.251-3.03,2.222-16.617,3.059-17.971c3.437-5.562,9.531,3.09,9.531,5.324v62.043c3.123,0.176,3.718-7.521,3.957-9.713
			c1.373-12.608,3.036-73.668,13.927-78.613c6.203-2.817,5.542,2.806,5.319,7.405c-1.013,20.829-10.673,44.353-8.458,66.188
			l18.351-66.794c0.79-6.59,8.812-25.879,14.286-13.066c3.194,7.476-15.175,41.405-13.708,52.52l26.688-61.091
			c19.254-2.343,0.29,17.81,0.653,27.45c6.844-4.56,15.937-29.509,24.158-29.512c12.808-0.005-3.994,20.595-5.23,25.306
			c5.266-2.702,24.676-28.324,29.161-15.488c3.825,10.947-13.146,7.93-16.563,17.571c9.538-1.786,17.017-6.094,27.333-4.175
			c7.758,7.651-24.121,15.645-25.222,16.848c-0.188,0.206-0.792,4.442,1.069,4.202c9.306-2.58,22.119-6.685,22.062,6.26
			c-8.771,2.961-18.681,3.011-27.421,5.201c-2.601,0.652-10.114,2.171-10.441,5.335h30.496c5.142,0,6.298,6.079,5.269,10.507
			c-17.768-0.289-35.884-0.5-53.027,4.851c-2.229,0.696-6.353,0.53-5.871,3.571h38.908c3.629,0,21.211,7.207,15.767,12.608
			l-45.296-2.18l-17.781,4.272c14.599-0.573,33.093,0.431,46.275,7.366c5.896,3.102,7.146,3.915,6.3,11.574l-65.194,4.237
			c-0.525,3.579,4.862,2.085,7.351,2.119c13.483,0.184,44.898-5.171,47.31,12.571c-17.139-0.689-34.703,1.9-51.514-2.09
			l-15.776,4.204h35.753c-4.447,6.413,1.425,2.072,2.093,6.288c-15.23-0.388-31.953,0.764-46.678,4.88
			c-2.172,0.607-6.374,0.499-5.879,3.532c15.693-0.057,60.047-13.976,71.502-3.14c2.628,2.486,2.352,4.016,2.098,7.368h-36.805
			c-5.387,0-32.897,8.455-39.457,11.018c-5.317,2.078-13.145,4.951-16.276,9.992c15.46-6.953,71.798-19.655,84.05-9.369
			c2.904,2.438,2.366,3.841,2.178,7.287h-38.908c-5.627,0-27.957,7.138-34.657,9.508c-7.571,2.678-14.588,8.602-23.163,9.446
			c-0.528,3.832,4.383,1.739,6.419,1.165c23.444-6.612,46.45-24.611,72.095-7.162c16.759,11.403-10.077,9.274-17.652,11.115
			c-14.734,3.579-29.522,11.437-44.036,15.914c-0.461,3.946,4.243,1.623,6.389,1.135c12.248-2.785,20.571-7.537,34.493-5.239
			c3.112,0.514,15.283,6.226,9.613,9.37c-4.811,2.668-19.107,0.406-26.098,1.244c-13.833,1.657-31.685,10.058-43.331,17.66
			c13.556-1,27.255-9.173,40.999-9.455c1.682-0.035,14.794,1.928,15.447,2.356c0.698,0.458,3.061,5.691,0.405,7.159
			c-3.413,1.886-25.241,2.196-32.143,3.617c-11.49,2.366-23.8,8.952-35.218,12.113c-0.499,3.901,4.237,1.573,6.408,1.156
			c7.808-1.5,45.873-8.419,48.251,2c1.337,5.86-14.947,6.459-19.371,7.936c-15.751,5.258-30.372,13.801-43.707,23.593l30.986-11.064
			c5.753-1.146,11.31-1.097,16.846,1.077c14.881,5.844-17.91,9.805-21.617,10.965c-10.578,3.31-23.198,7.741-32.524,13.745
			c13.528,0.579,29.024-9.503,41.908-1.96c15.997,9.365-11.641,8.917-16.791,10.252c-13.197,3.422-25.474,10.265-37.73,15.911
			c-0.463,3.944,4.244,1.623,6.388,1.134c13.607-3.103,18.555-8.818,33.558-2.117c1.645,0.735,6.007,0.585,4.184,4.08
			c-1.255,2.404-26.063,8.748-32.206,11.97c-4.342,2.278-17.484,11.302-18.267,15.384l0.365,83.796
			c44.308,28.108,50.429,96.564,12.335,132.903c-5.067,4.834-13.324,4.338-12.683,13.613h54.682l-2.184-182.002
			c-2.981-21.846,21.944-22.146,29.003-28.837c3.393-3.216,1.705-10.078,7.642-12.477c6.706-2.71,46.858-3.309,51.244,0.92
			c2.328,2.245,2.901,9.177,5.835,12.037c3.557,3.467,13.486,4.712,17.703,9.629c11.069,12.902-0.889,72.656,6.429,91.367h60.991
			c-9.511-21.776-22.052-41.28-29.522-64.067c-19.618-59.843-6.99-97.134-14.534-151.614c-1.303-9.407-8.023-12.632-2.721-25.643
			c6.848-16.806,56.565-24.491,73.678-27.267c119.936-19.454,249.176-3.896,370.604-9.012l-0.011-25.249h-29.444l0.011,14.733
			l-12.641,0c4.053-22.301-7.947-12.085-10.512-14.723c-1.178-1.211-1.181-32.461,0-33.669c0.762-0.778,9.738,0.789,10.535,0.019
			c0.984-0.95-0.744-23.132-0.023-27.362h12.641l-0.011,27.352h29.444v-97.796c0-6.772-8.903-19.338-14.818-23.038
			c-19.26-12.049-35.775,9.176-40.917,26.19c-1.918,6.346-1.882,22.615-8.419,23.266c-14.325,1.426-3.968-27.641-0.812-34.6
			c22.308-49.186,104.941-52.226,122.837,2.89c6.633,20.428,3.257,53.368,3.132,74.719c-0.029,4.887-1.629,28.369,3.143,28.369
			h32.599c0.949-5.435-2.603-28.064,3.078-29.005c14.05-2.327,4.409,26.14,7.419,29.017c0.617,0.589,6.465-0.375,8.431-0.013v31.547
			c0,0.331-4.807-1.17-6.503,1.231c-5.604,7.932,5.142,19.016-12.436,15.605l0.011-14.733h-35.753
			c2.346,8.287-3.246,18.263,3.503,25.324c86.972,2.397,175.878-3.467,262.631-0.173c39.688,1.507,92.696,6.011,130.991,16.229
			c18.967,5.061,47.837,13.217,37.655,39.032c-12.017,30.468-3.313,68.006-6.009,101.239
			c-7.581,93.443-63.293,174.585-150.597,209.04c-6.081,2.4-29.805,8.135-32.16,9.901c-3.346,2.509-1.842,8.129-2.049,11.622
			h208.211l32.144-151.88c-1.056-9.452,12.205-16.969,13.739-22.087c1.898-6.333-1.824-12.152-1.779-18.354
			c0.189-25.636,18.722-33.144,40.997-34.893l314.505,0.085c-5.316-42.109,24.224-97.111,51.885-128.039
			c11.476-12.832,38.927-27.663,45.788-36.128c9.003-11.109,7.018-38.942,27.899-43.613c11.949-2.673,70.544,6.079,81.641,12.116
			c27.496,14.96,4.929,46.283,3.016,68.339l0.064,184.108l21.043,2.095V305.433h-21.031v683.52c0,0.421-8.413,0.421-8.413,0V308.588
			c0-5.138-22.593-2.649-27.333-3.141c-0.803,2.27,2.095,4.591,2.095,5.244v671.953c0,0.421-8.413,0.421-8.413,0V307.536
			c0-0.952-15.89-0.129-18.928-2.103v666.695h-10.516V307.536c0-0.952-16.558-2.437-18.928-2.103v661.438
			c0,5.755,7.533,8.256-8.413,9.464V307.536h-18.928v696.139l-8.443-1.211l0.029-694.909l-21.03-0.02v721.377
			c0,0.433-8.113,2.416-8.402,2.093l-2.199-17.781c-2.471-225.667,2.582-451.984,2.364-677.296
			c-0.008-8.565-4.35-18.884-2.267-28.403l-18.939,0.01v766.595c0,2.226-5.969,4.004-8.412,3.155V307.536l-21.042-0.011
			l2.262,810.851c0.289,5.716-10.664,5.939-10.664,2.024V307.536h-16.825v873.855c0,2.226-5.969,4.005-8.413,3.155V308.588
			c0-0.223-2.932-3.155-3.155-3.155h-34.702v877.009c-7.743,0.459-9.686,0.485-10.617-7.26c-3.606-29.99-0.336-77.675,0.015-109.551
			c1.737-157.844,10.784-331.206,2.289-487.937c-0.453-8.365-0.075-22.942-10.648-16.701c4.128,6.168,0.335,11.638,0.444,16.802
			c2.14,102.12-0.546,204.944-0.497,306.966c0.027,56.666,1.515,113.303,1.184,169.571c-0.443,0.815-5.306,1.922-6.356,1.922
			h-295.491V91.965c0-3.96,10.516-3.96,10.516,0v200.85l279.728,2.114c0.428-8.102-3.293-16.647,7.333-16.88
			c6.803-0.149,0.774,9.84,4.177,14.816c1.962,2.869,4.441,2.098,7.408,2.053V19.406c0-0.596,10.516-3.369,10.516,1.052V135.079z
			 M2157.145,145.595h-298.646v149.323h37.856c1.562,0-5.429-25.574,8.403-18.938l-0.001,18.949h16.847l-0.04-17.753
			c15.846-7.419,8.69,15.904,10.535,17.752c0.552,0.553,13.589,0.464,15.619,0.115c2.748-0.472,2.687-18.349,3.38-19.022
			c0.299-0.291,8.041-0.329,8.343-0.042c0.791,0.752-0.548,15.622-0.001,18.949c3.333-0.557,18.186,0.764,18.949-0.001
			c1.561-1.565-3.86-18.963,5.248-18.963c9.107,0,3.688,17.403,5.247,18.963c0.813,0.813,17.512-0.595,21.034-0.025
			c-1.959-10.998-7.895-22.122,8.431-18.924l-0.022,18.95l17.721,0.029c5.18-7.644-6.458-18.922,6.513-19.106
			c7.753-0.11,4.145,17.974,5.209,19.078c0.674,0.699,13.76-0.504,16.847-0.002c1.433-4.199-3.483-19.067,3.162-18.985
			c13.126,0.163,4.944,16.592,7.332,18.984c0.766,0.767,15.625-0.549,18.941-0.02c2.074-2.07-7.27-18.898,3.152-18.944
			c9.091-0.04,3.698,17.415,5.248,18.964c0.893,0.893,24.365,0.893,25.259,0.001c1.169-1.166-1.732-18.578,1.052-18.95
			c12.321-1.646,5.422,17.03,7.34,18.949c0.811,0.812,17.483-0.601,21.042-0.01V145.595z M1829.055,305.433h-279.718v225.036
			l16.824-0.021c-4.838-20.643-8.476-62.076-0.362-81.335c2.419-5.742,10.079-11.134,10.522-12.521
			c2.042-6.398-1.407-16.457,0.685-22.521c1.196-3.468,6.815-3.697,7.898-6.987c1.708-5.19-7.015-23.745-0.575-25.644
			c2.365-0.698,31.189,1.313,35.335,1.94c9.54,1.442,13.507,9.223,3.906,12.051c-13.028,3.837-12.733-6.534-15.335,15.145
			c2.594,0.509,11.942-0.675,12.622,0.004c1.048,1.046-1.176,20.889,0.376,25.914c1.403,4.544,9.635,6.068,11.171,11.946
			c2.415-6.68,15.964-15.38,17.455-20.404c1.433-4.828-0.481-22.898,0.419-23.765c0.798-0.769,9.743,0.791,10.54,0.021
			c0.909-0.877,0.909-24.382,0-25.259c-2.864-2.765-14.106,7.484-10.518-12.612c9.123,4.178,38.936-0.457,44.203,3.11
			c11.23,7.603-14.409,15.032-21.081,11.625c1.188,3.451,1.479,20.17,2.216,20.921c0.463,0.471,5.692-0.112,8.243,1.154
			c7.776,3.859,2.478,17.809,4.652,24.849c1.188,3.844,6.945,5.529,9.812,9.116c8.859,11.083,9.616,22.742,8.75,36.478
			c5.011-2.054-0.852-11.992,5.236-14.711h99.899c0.98,0-0.747,16.319,0.036,19.601c0.435,1.822,4.346,0.62,4.334,4.428
			c-0.05,16.11-11.232,35.348-21.195,47.478h33.65V305.433z M1847.968,305.424l-8.396,0.029c0.771,2.47,2.295,4.434,2.193,7.275
			c-2.285,63.79,1.389,128.75-0.004,193.642c-0.246,11.445-3.686,23.228-2.293,35.768c1.197,10.772,10.272,9.814,10.722,0.001
			C1848.725,463.282,1852.738,384.001,1847.968,305.424z M1675.537,414.786h-12.641v14.744h12.641V414.786z M1608.236,421.095
			h-16.847v14.744h16.847V421.095z M1653.837,442.532c-3.505,1.074-9.097,9.785-9.759,13.376c-1.339,7.264-1.11,58.203,0.829,64.168
			c4.162,12.802,39.278,14.338,46.301,3.994c4.639-6.834,4.305-51.535,3.327-62.033c-0.8-8.591-2.373-17.284-12.102-19.445
			C1677.652,441.528,1658.098,441.226,1653.837,442.532z M1590.838,446.851c-7.028,1.284-14.194,6.335-15.82,13.607
			c-1.615,7.225-1.608,48.658,0.006,55.892c3.994,17.903,41.206,18.868,47.929,2.559c3.658-8.873,3.575-55.952-1.165-64.044
			C1617.004,446.698,1599.434,445.281,1590.838,446.851z M1798.559,471.581h-76.765c-2.69,13.166,11.623,11.886,21.021,12.64
			l-22.881,4.412c-4.287,54.903,78.926,55.129,81.784,2.928c0.156-2.844-1.732-5.805-1.913-8.646
			C1799.608,479.802,1803.671,473.003,1798.559,471.581z M1723.897,530.448l-8.849-11.11l-7.955-18.303l-4.226,29.413
			L1723.897,530.448z M1551.441,549.397h277.615l0.016-6.302c-89.793-4.804-180.302-0.709-270.377-2.218
			C1552.681,540.76,1550.521,543.53,1551.441,549.397z M1829.055,559.913h-279.718v233.448h31.547
			c-16.226-15.435-16.073-37.487-21.062-57.808c18.364-7.019,12.59,9.783,16.855,22.055h82.022
			c-0.683-2.065,2.103-4.563,2.103-5.258V705.03h-88.332c-1.443,0,5.681,25.007-12.619,18.928v-29.444
			c36.104-4.682,73.516-0.958,110.067-2.013c2.977-3.203,3.177-7.122,6.553-10.72c3.705-3.948,12.281-6.172,13.443-9.683
			c3.228-9.752-6.352-25.258,8.749-21.765l-2.117-21.027c5.647,0.895,37.865-2.476,37.865,3.164v39.96
			c0,1.008,11.43,10.089,13.139,14.202c0.781,1.881,3.686,17.772,3.686,19.448v38.908c15.18-0.028,8.392-30.72,10.821-33.371
			c0.929-1.014,6.912,0.093,7.988-3.661c1.295-4.52-6.332-17.506-4.086-23.959h32.599c5.159,0-0.16,20.794,0.91,26.188
			c0.502,2.529,6.096-0.22,6.595,2.305c1.384,6.999-1.712,16.087,0.794,24.199c1.642,5.316,8.3,9.038,11.33,13.908
			c7.803,12.542,6.282,30.63-1.752,42.742h14.721c1.042-0.753-2.102-2.683-2.102-3.134V559.913z M1721.78,658.768
			c-6.186,1.49-10.788,3.674-16.79-0.006l-0.031,16.835h16.847L1721.78,658.768z M1693.904,686.603
			c-7.654,1.367-12.8,5.251-14.047,13.294c-1.698,10.949-1.886,69.449,0.326,79.344c3.974,17.779,53.239,16.177,56.291,0.407
			l-0.358-85.783C1733.093,683.834,1702.559,685.057,1693.904,686.603z M1789.084,696.62l-8.392-0.013
			C1777.228,715.222,1790.827,713.535,1789.084,696.62z M1795.416,721.844l-21.053,0l0.025,14.726l21.027-2.085L1795.416,721.844z
			 M1773.817,747.593c-15.35,2.825-22.823,19.286-15.035,32.976c8.752,15.386,44.77,16.298,50.405-1.81
			C1817.215,752.956,1796.087,743.494,1773.817,747.593z M1673.422,793.341l-5.409-10.343l-2.98-19.067
			c-0.598,11.477-6.798,20.195-12.642,29.41L1673.422,793.341z M1652.391,770.227h-64.146c-1.631,0-8.962-4.4-7.274,0.944
			c6.97,22.067,27.596,22.006,47.333,20.187C1640.047,790.276,1649.698,781.858,1652.391,770.227z M1826.952,803.877h-275.511v4.206
			h275.511V803.877z M1829.055,822.806h-279.718v220.83l14.721-0.021c-12.221-10.646,6.472-30.514,6.154-32.286
			c-0.35-1.949-5.993-5.558-7.325-9.64c-5.565-17.06,8.499-24.144,23.17-25.44c33.877-2.992,94.221-2.491,128.469-0.006
			c26.49,1.922,35.555,16.208,17.785,37.903c11.862,3.554,12.057,19.328,8.412,29.49h88.332V822.806z M1063.512,976.335v-87.28
			c0-1.143-3.562-10.094-4.474-12.351c-9.483-23.478-31.578-35.109-56.506-32.845c1.558,4.056,7.152,4.177,10.539,7.896
			c1.427,1.567,10.482,17.314,10.482,18.372v106.209H1063.512z M272.71,946.88c0.591-12.895,6.691-25.035,7.546-37.874
			c0.239-3.585,1.892-5.594-2.277-8.374c-3.88,11.959-6.006,26.424-7.096,39.169C270.68,942.17,268.93,947.347,272.71,946.88z
			 M295.856,911.149c-5.832-1.019-3.544,1.214-4.742,4.6c-5.752,16.247-9.734,33.415-14.155,50.058l8.431-17.827L295.856,911.149z
			 M318.99,927.951c1.933-4.869-12.039-13.346-12.587-12.607C304.772,924.416,310.577,928.162,318.99,927.951z M283.268,980.541
			c10.209-12.418,18.239-30.705,20.989-46.268c-3.656,0.55-3.576,4.266-4.777,6.769C293.452,953.601,287.82,967.351,283.268,980.541
			z M537.727,942.685h-41.011l-14.697,6.338L537.727,942.685z M348.455,993.149l32.683-25.132c4.078-4.021,5.717-9.069,5.141-14.817
			c-11.047,10.606-23.804,20.829-33.632,32.594C350.673,988.159,347.553,989.203,348.455,993.149z M289.531,1005.774l21.036-50.459
			c-3.008,1.132-5.976,7.533-7.424,10.423c-4.675,9.327-7.874,19.787-12.977,29.003
			C288.359,998.003,279.347,999.681,289.531,1005.774z M251.684,972.155l-29.415-10.534c0.312,2.531-1.452,4.728,1.389,6.336
			c1.34,0.758,18.042,4.545,21.635,5.334C247.443,973.764,252.135,976.117,251.684,972.155z M415.724,1022.604l-8.032-24.545
			l-19.267-36.445C395.605,981.919,402.73,1005.428,415.724,1022.604z M266.401,997.365c5.855-5.756-24.908-15.066-27.342-15.751
			c-5.483-1.543-10.991-3.416-16.803-3.155C234.364,988.253,253.121,988.091,266.401,997.365z M291.681,1024.707
			c9.697-12.594,19.437-28.519,23.092-44.165C305.453,993.317,295.29,1009.18,291.681,1024.707z M407.311,1041.522
			c-3.222-17.417-11.333-35.569-18.329-52.094c-1.101-2.601-1.135-6.203-4.763-6.783l7.371,25.206L407.311,1041.522z
			 M1116.091,988.954H970.974c-0.421,0-0.421,8.413,0,8.413h145.117C1116.511,997.366,1116.382,989.256,1116.091,988.954z
			 M1730.207,997.366c-1.511-3.45-2.883-8.045-7.341-8.433l-146.203,1.057l-4.192,7.376H1730.207z M2039.369,1026.81h36.805
			c0.657,0,2.258,2.251,3.938,1.844c3.705-0.654,13.316-25.735,11.838-27.073c-9.886,1.616-25.973-5.042-34.668-4.229
			C2047.127,998.302,2040.816,1018.585,2039.369,1026.81z M2089.831,1056.265l14.713-52.579l-20.632,47.703l-0.367,4.854
			C2085.245,1056.016,2089.394,1056.675,2089.831,1056.265z M2119.266,1075.18c3.769-23.429,35.805-62.778-4.163-69.408
			c1.177,10.228-18.119,42.817-16.579,49.218C2098.862,1056.397,2117.289,1070.35,2119.266,1075.18z M1063.512,1009.985h-39.96
			c1.118,6.492-3.76,25.238,5.258,25.238h34.702V1009.985z M1721.795,1009.985h-136.704c-0.266,4.86-0.756,3.747,3.11,4.217
			c9.493,1.154,24.055,2.017,33.769,2.217c15.371,0.317,34.734-1.966,50.313-2.314c14.396-0.321,32.799,1.825,46.394,0.09
			C1721.765,1013.802,1725.209,1012.563,1721.795,1009.985z M398.898,1056.244l-2.557-13.186l-12.122-24.649
			c2.06,7.835,4.52,17.777,7.381,25.185C392.916,1047.003,395.659,1054.587,398.898,1056.244z M1572.472,1026.81
			c-0.425,6.478,1.124,15.115,9.344,14.842l143.16-0.094c5.864,0.726,8.559-14.748,4.18-14.748H1572.472z M464.106,1028.934
			c-11.061,2.08-24.026,5.888-33.692,11.575c-2.725,1.603-5.31-0.376-4.133,5.229L464.106,1028.934z M266.407,1049.971
			c-7.523-2.133-13.543-6.769-21.105-9.402c-4.577-1.594-22.399-8.032-25.128-2.16c-1.93,4.152,4.294,3.298,6.664,3.775
			c13.636,2.746,20.241,4.596,33.235,8.863C262.13,1051.724,266.837,1053.923,266.407,1049.971z M392.59,1079.387
			c-1.659-7.935-3.864-16.121-6.787-23.687c-1.55-4.012-4.314-11.851-7.894-14.157c2.451,10.339,6.474,20.807,10.241,30.738
			C389.16,1074.942,388.608,1078.733,392.59,1079.387z M2051.987,1041.553c-3.977-3.726-21.484,22.69-23.613,25.789
			c-11.586,16.87-22.841,37.865-32.162,56.17c-13.186,25.896-28.498,55.586-32.534,84.158c4.433-3.354,7.821-11.025,10.194-16.063
			C1997.828,1140.741,2014.371,1084.694,2051.987,1041.553z M1936.336,1192.958c3.97-0.658,3.435-4.433,4.437-7.109
			c13.251-35.398,26.042-70.353,47.261-102.062l30.283-38.047C1974.954,1080.291,1935.113,1135.476,1936.336,1192.958z
			 M718.165,1048.461c-23.945,1.1-120.666,9.36-135.29,24.536c-13.479,13.988,27.65,22.128,36.851,24.293
			c32.832,7.729,74.475,12.297,108.25,13.732c209.485,8.906,425.19-6.922,635.322,0c18.604-1.073,132.473-13.479,135.462-30.824
			c1.668-9.677-28.954-17.052-35.625-18.711c-34.808-8.653-70.541-10.403-106.146-13.733
			C1145.647,1054.495,928.874,1038.779,718.165,1048.461z M1953.119,1203.478c1.281-1.374,9.168-29.799,11.617-35.728
			c10.808-26.164,23.729-51.541,37.186-76.384l26.91-41.42c-15.399,12.967-28.255,33.276-38.718,50.644
			c-11.593,19.244-43.745,79.507-41.224,99.728C1949.25,1203.197,1950.22,1206.588,1953.119,1203.478z M279.04,1075.162
			c-4.81-9.808-53.707-27.755-58.881-23.099c1.232,4.775,2.734,7.982-0.005,12.585
			C241.46,1058.464,260.041,1066.293,279.04,1075.162z M386.28,1094.11l-16.783-42.052
			C371.654,1065.579,376.802,1083.872,386.28,1094.11z M1986.094,1198.547c17.536-15.549,38.956-85.172,52.128-110.841
			c6.164-12.011,15.083-22.994,20.054-35.657c-35.809,41.881-50.576,97.057-77.259,144.605l-0.516,4.717
			C1980.728,1201.663,1985.197,1199.343,1986.094,1198.547z M373.661,1096.203c-1.665-9.814-7.466-22.274-14.68-29.432
			L373.661,1096.203z M2007.833,1184.535c10.298-3.601,14.441-17.452,19.303-25.893l35.347-91.871L2007.833,1184.535z
			 M2093.348,1067.239c-11.196,0.909-8.88,22.761-10.748,31.195c-2.794,12.621-6.283,25.119-11.321,37.051
			c-7.127,16.878-38.304,55.029-36.218,68.989c1.757,11.759,20.612,5.026,27.091-4.506c12.194-17.94,32.039-68.649,39.815-90.58
			c2.306-6.505,7.471-19.987,6.439-26.313C2107.477,1077.378,2100.006,1066.699,2093.348,1067.239z M2037.287,1163.514
			c24.755-19.638,31.041-54.309,33.607-84.115L2037.287,1163.514z M2125.598,1199.268v-115.673l-41.927,99.75L2125.598,1199.268z
			 M438.868,1094.131c-11.309,1.011-24.405,8.185-31.535,16.784L438.868,1094.131z M596.368,1102.761
			c-0.41-0.477-11.891-2.83-12.361-2.332c-4.224,71.281,0.699,138.878,40.314,200.475c34.253,53.259,90.339,90.337,153.149,100.258
			c-0.416-2.57,0.661-12.008,0.027-12.623c-0.852-0.826-18.06-1.371-23.574-2.717c-95.967-23.428-151.774-121.155-157.397-214.859
			C595.941,1161.206,598.591,1105.348,596.368,1102.761z M1492.551,1100.44c-20.056,7.428-41.17,11.405-62.39,14.353
			c-23.928,3.324-49.056,5.813-73.174,6.745c-157.541,6.088-323.252-0.566-481.351-1.396c-69.646-0.366-139.034,4.177-208.545-2.917
			c-21.446-2.189-42.817-7.226-64.186-9.424c4.355,8.324,22.113,9.255,31.177,10.886c26.853,4.833,54.193,6.049,81.261,9.174
			c216.296-8.612,441.049,11.113,656.367-0.013c23.164-1.197,54.237-5.003,77.16-9.069c5.051-0.896,26.364-8.083,27.765-7.746
			c3.549,0.856,4.544,10.635,3.092,12.334c-1.827,2.139-45.037,9.601-51.587,10.435c-252.158,11.938-506.517,8.065-758.939,2.345
			l-62.076-8.396c-4.679,95.635,33.412,201.361,127.744,239.27c64.964,26.107,178.535,12.974,249.675,13.017
			c56.013,0.033,111.96,2.589,168.439,2.29c50.078-0.265,119.018,2.996,166.728-7.833
			c86.717-19.682,140.752-103.342,147.571-188.931c1.077-13.513-2.717-39.323-0.052-50.079c0.866-3.494,8.346-4.974,11.141,1.212
			c4.369,9.669-1.267,58.388-3.306,71.371c-13.829,88.036-73.178,164.32-163.381,180.494c-1.286,1.211,2.879,9.618,5.472,10.241
			c6.706,1.613,55.727-20.24,64.573-25.384c91.827-53.401,114.761-153.254,110.92-253.103
			C1492.374,1113.209,1488.155,1107.258,1492.551,1100.44z M348.432,1161.403c-4.838-0.977-3.367,0.526-4.731,2.69
			c-15.83,25.122,3.614,81.702,0.558,110.877c3.667,0.494,1.98-4.774,2.081-7.33
			C347.729,1232.214,351.926,1196.539,348.432,1161.403z M365.259,1184.544l-6.289-0.01c0.769,31.71-5.873,62.958-4.194,94.642
			L365.259,1184.544z M2068.813,1213.99h54.681c-1.025-3.049-7.687-6.092-10.527-7.352c-11.334-5.03-24.355-6.59-35.707-11.586
			L2068.813,1213.99z M1938.417,1211.865c-4.415-5.215-20.9-5.955-28.304-6.376c-83.216-4.728-189.868-3.472-273.596-0.013
			c-9.294,0.384-22.477,1.148-31.527,2.123c-3.149,0.339-6.493,0.464-7.28,4.266L1938.417,1211.865z M2020.44,1213.969
			c-4.702-9.021-11.495-11.151-18.917-3.124L2020.44,1213.969z M518.799,1220.299c-1.004-2.103-2.477-6.297-4.192-7.376
			c-3.009-1.894-41.444-5.038-35.768,7.376H518.799z M2117.195,1224.496l-503.812,0.109l-27.078-4.404
			c-4.092,0.345-2.878,22.519,2.422,25.367c6.023,3.236,20.011,3.347,27.116,6.021c152.463-2.63,315.041,11.467,466.728,2.448
			c4.36-0.259,31.214-3.28,32.324-4.475C2115.752,1248.64,2117.48,1227.996,2117.195,1224.496z M373.682,1279.187v-52.578
			l-6.415,45.321C366.926,1276.062,368.876,1279.849,373.682,1279.187z M541.933,1312.837v-78.868
			c0-8.006-16.185-3.118-19.896-3.055c-15.394,0.261-31.062,0.306-46.454,0c-5.173-0.103-26.188-5.566-26.188,3.056V1422.2
			c17.641-0.554,35.082,0.176,52.568,2.092c-9.522-23.634-3.148-44.38-2.006-68.254c0.718-15.017-0.722-30.288-0.066-45.303
			c0.753-1.042,2.683,2.102,3.134,2.102H541.933z M1599.803,1260.28c-17-0.024-20.489-9.514-27.937,8.844
			c-11.952,29.459-30.447,125.162-34.567,158.912c-0.621,5.086-0.888,10.084-0.558,15.186l5.269-16.783l33.612-157.773l4.554-5.962
			L1599.803,1260.28z M2152.938,1268.671c-7.229-8.751-26.358-7.08-36.899-6.405c-8.886,0.57-17.239,3.884-25.179,4.267
			c-20.246,0.977-40.722-0.807-60.978,0.035c-2.589,0.108-7.811-1.6-7.339,2.103H2152.938z M1908.974,1264.465h-279.718
			l21.982,4.307c17.993,1.981,37.543-2.098,54.695-2.29c64.665-0.724,131.408,2.759,195.7,0.086
			C1904.226,1266.46,1909.447,1268.167,1908.974,1264.465z M1553.544,1422.2h54.682l27.476-141.788
			c-0.364-2.728-41.725-8.517-47.568-7.658L1553.544,1422.2z M2178.197,1384.343c4.688-1.16,2.846-3.035,2.826-5.788
			c-0.184-25.216-2.518-74.066-7.51-97.86c-0.607-2.891-2.646-7.03-5.832-7.817L2178.197,1384.343z M1652.38,1274.991
			c-6.444-1.012-3.373,1.621-4.13,5.246c-9.848,47.122-18.123,94.724-27.384,141.952c3.17,0.303,3.339-5.145,4.014-7.512
			C1637.574,1370.126,1643.099,1320.524,1652.38,1274.991z M1635.566,1422.2h487.928c-5.971-8.321-4.077-17.673-4.195-27.351
			c-42.411-0.307-84.901,0.41-127.338,0.097c-21.395-0.158-43.374-2.417-65.211-2.29c-59.55,0.347-130.405,7.605-189.281,2.302
			c-17.891-1.611-17.15-11.317,0.01-12.802c70.434-6.097,157.348,1.959,229.244,2.275c36.832,0.162,73.707-0.309,110.512-0.076
			c1.579-7.623-5.284-79.344-1.052-79.941c4.394-0.62,6.747,0.723,7.35,5.269c2.093,12.922-0.916,62.816,4.152,71.078
			c3.082,5.024,23.586,3.296,29.509,3.594l-4.216-91.499c0.066-1.721-1.972-5.256-3.156-5.256h-32.599v-2.103h33.65v-4.206h-100.951
			c-1.835,6.756,7.879,2.356,3.148,8.423c-4.372-0.874-24.8,1.163-26.281-0.03c-0.52-0.419,5.938-9.842-2.948-10.391l-320.937,2.019
			l14.711,6.267c-5.236,0.564-14.209-2.352-16.417,3.573L1635.566,1422.2z M2157.156,1279.176l-25.259,0.001l4.205,105.178
			l27.361-0.002L2157.156,1279.176z M377.888,1289.703H311.64c-10.109,0-23.933,15.718-28.134,24.445
			c-13.439,27.92-9.584,77.966,22.875,91.207c-12.751-16.891-21.058-37.471-21.041-58.874l10.536-0.004
			c-2.688,21.657,14.228,56.621,37.299,60.497c11.362,1.909,34.142,1.214,45.161-2.201c38.115-11.811,39.257-81.12,13.272-106.352
			c-5.327,7.993-35.555,6.705-36.863,8.094c-0.608,0.646,1.088,7.477-0.994,10.578c-7.495,11.161-8.97-9.673-9.737-10.338
			c-1.68-1.457-44.257,1.455-41.828-9.66c1.531-7.008,47.218-0.529,55.695-1.117C363.051,1295.619,375.377,1294.59,377.888,1289.703
			z M617.646,1422.2h157.736c-0.445-2.569,1.439-6.798-1.233-8.633c-4.717-3.24-41.211-10.771-51.898-15.001
			c-42.013-16.628-70.672-44.553-100.377-77.317C616.568,1355.32,639.425,1392.011,617.646,1422.2z M562.944,1430.613
			c4.469-30.829,0.809-61.762-1.031-92.559c0.645,26.976-5.386,56.587-3.266,83.206
			C558.941,1424.948,558.252,1429.363,562.944,1430.613z M571.377,1352.797v70.455c0,0.517,2.062,10.076,4.185,9.454l0.122-51.617
			L571.377,1352.797z M550.325,1432.706c-3.013-6.407,4.975-77.844,1.073-77.827c-3.86,21.677-7.1,44.051-5.234,66.244
			C546.378,1423.676,546.949,1432.372,550.325,1432.706z M514.614,1401.169c4.149-0.853,3.599-4.298,4.172-7.374
			c1.809-9.709,3.221-18.978,6.301-28.368c-3.52,1.478-5.862,9.613-6.881,13.069C516.027,1385.893,513.867,1393.3,514.614,1401.169z
			 M525.108,1383.292c-1.4,8.926,0,23.82,0,33.65c0,0.344,2.063,6.147,4.185,5.247c-2.383-18.39-0.313-37.627,4.261-55.692
			c-2.171-3.345-2.603,1.614-3.162,3.116C529.198,1372.821,525.435,1381.208,525.108,1383.292z M588.203,1421.149
			c1.384-9.912,0-25.059,0-35.753c0-4.08-5.688-14.149-4.228-19.969c-3.695,0.611-2.336,10.934-2.181,13.762
			c0.852,15.634,3.775,31.278,2.225,47.207C586.134,1427.165,588.082,1422.012,588.203,1421.149z M607.11,1411.675
			c0.793-10.259,1.557-19.737-0.517-29.963c-0.888-4.378-3.897-13.714-7.854-16.285L607.11,1411.675z M539.83,1428.51v-60.991
			l-2.082,0.011c2.227,5.05-2.124,12.949-2.124,15.763v42.063C535.624,1425.722,538.465,1428.669,539.83,1428.51z M596.615,1417.994
			v-38.908c0-1.263-2.931-4.742-2.126-7.349l-2.058-0.002c-2.183,4.645,2.081,11.341,2.081,13.66v32.599H596.615z
			 M1307.455,1441.128l-2.103-52.577c-12.408,1.901-28.14,3.87-40.89,4.305c-142.954,4.875-302.982,4.373-446.066,0
			c-9.982-0.305-19.977-3.781-30.406-2.214c1.296,16.939-4.95,33.646-1.051,50.475c11.223-7.592,25.069-36.274,37.756-37.957
			l445.248-0.871C1279.838,1403.566,1297.47,1434.72,1307.455,1441.128z M2165.557,1394.86h-29.444v29.444h31.547
			C2167.495,1414.429,2168.79,1404.354,2165.557,1394.86z M2182.382,1394.86c-7.711-1.719-3.034,9.336-4.306,13.773l4.306,32.496
			V1394.86z M1273.826,1422.2l-4.234-7.333l-436.461-1.164c-7.304,0.639-11.537,0.555-13.582,8.497H1273.826z M373.682,1424.304
			c-0.093-8.25-3.606-4.206-5.258-4.206h-36.805c-1.137,11.171,2.735,4.206,5.258,4.206H373.682z M501.974,1434.819h-44.166
			c-0.232,8.115,22.875,8.115,30.389,8.512C498.052,1443.853,504.308,1445.968,501.974,1434.819z M1620.843,1434.84
			c-5.994-1.012-3.518,1.23-4.498,4.842c-5.619,20.702-8.006,45.354-12.303,66.635c3.593-0.463,4.115-7.909,4.872-10.872
			C1613.991,1475.557,1616.155,1454.802,1620.843,1434.84z"/>
		<path d="M684.519,356.531c142.452-9.187,250.3,126.915,209.189,263.872c-50.785,169.184-297.005,192.539-380.213,38.403
			c-34.006-62.992-34.469-148.264,10.515-205.714c2.803,1.23,7.56,2.649,7.201,6.583c-0.177,1.942-15.673,27.77-18.219,34.492
			c-39.745,104.951,19.383,222.271,128.158,249.402c208.299,51.955,341.09-196.013,177.284-332.917
			c-71.742-59.959-181.295-55.462-251.288,5.171c-5.714,4.95-27.211,30.573-30.467,30.591
			c-15.922,0.086,10.745-27.859,14.658-31.678C585.691,381.21,636.636,359.619,684.519,356.531z"/>
		<path d="M146.543,303.33l-0.011-10.527c17.766,1.061,35.613-0.814,53.283-1.302c99.733-2.753,200.924,0.505,301.209-0.892
			c7.426-0.566,10.087,6.322,4.27,10.788c-11.349,8.713-99.496-4.945-119.124,0.776l-1.677,2.573l-0.264,392.746
			c-9.541,4.993-10.113-2.58-10.643-10.248c-2.266-32.816,1.944-66.336,2.299-98.839c1.036-95.012,0.114-190.39-2.203-285.076
			H222.256v513.166c0,0.536-8.691,1.085-10.516,2.103V303.33H146.543z"/>
		<path d="M1317.972,1460.051c14.218,99.003,28.159,198.429,39.719,297.861c3.302,28.406,9.749,65.022,10.853,92.387
			c0.151,3.737,0.32,6.994-3.251,9.335c-6.887,2.181-8.515-7.469-9.245-11.748c-11.189-65.566-15.245-138.814-23.601-205.641
			c-6.583-52.651-19.539-112.537-22.834-164.326C1309.022,1468.648,1306.655,1460.122,1317.972,1460.051z"/>
		<path d="M527.467,633.23c-1.39-0.846-8.974-25.236-9.78-29.09c-17.173-82.036,30.495-184.432,114.613-207.296
			c5.26-1.43,11.868-2.727,12.68,4.253c-8.237,9.313-21.693,10.572-32.224,16.169c-68.217,36.251-101.977,116.402-82.399,191.03
			c1.516,5.78,7.415,15.414,7.33,20.12C537.594,633.447,530.722,635.21,527.467,633.23z"/>
		<path d="M684.939,728.155c-0.1-3.918-0.934-8.782,3.458-10.211c78.434-0.661,149.445-53.141,162.116-132.323
			c1.093-6.827,2.408-37.792,4.704-39.461c10.649-7.742,8.687,16.201,8.472,21.098C859.545,661.806,778.069,731.537,684.939,728.155
			z"/>
		<path d="M823.923,576.92c1.979-1.385,9.302-0.314,10.104,3.134c0.404,1.734-5.413,24.814-6.663,28.686
			c-2.371,7.345-19.73,47.048-27.523,45.676c-1.91-0.336-5.455-4.389-5.226-6.866c0.24-2.604,14.705-24.46,17.5-30.925
			C815.435,608.944,822.222,578.11,823.923,576.92z"/>
		<path d="M1135.019,1838.622v-90.435c2.254,0.042,4.358-0.576,6.429,0.932c4.763,3.469,0.514,72.893,1.984,84.245
			C1142.495,1838.584,1140.071,1839.194,1135.019,1838.622z"/>
		<path d="M1135.019,1627.257c1.065-3.764,9.213-6.358,9.429,2.079c0.667,26.012-2.59,52.757-1.027,78.882
			c-2.347,0.88-8.402-0.901-8.402-3.144V1627.257z"/>
		<path d="M1400.014,1443.232c1.08,0.725,3.025,10.516-1.052,10.516H1356.9c-3.96,0-3.96-10.516,0-10.516
			C1363.217,1443.232,1398.225,1442.03,1400.014,1443.232z"/>
		<path d="M275.906,679.811c10.759-3.406,8.927,23.693,4.167,25.2C269.314,708.417,271.145,681.318,275.906,679.811z"/>
		<path d="M833.958,568.012c-1.901,1.128-5.64-0.022-8.092,0.324l0-23.153C839.982,539.147,837.713,565.785,833.958,568.012z"/>
		<path d="M1538.833,67.786c5.904-5.968,16.711,9.812,7.329,12.591C1538.048,82.781,1537.35,69.284,1538.833,67.786z"/>
		<path d="M1225.446,1352.806c52.256,1.998,104.196-9,144.129-44.119c33.656-29.599,55.329-74.499,59.612-119.155
			c0.598-6.238-3.291-51.956,10.868-41.872c4.745,3.38,0.696,40.365-0.35,48.184c-13.223,98.839-84.751,162.25-183.776,167.448
			C1245.382,1363.846,1221.54,1367.689,1225.446,1352.806z"/>
		<path d="M1475.216,1085.199c-11.377,11.38-102.987,16.885-122.435,19.515c-204.33-5.733-412.527,7.312-616.407,0.013
			c-33.755-1.208-75.773-4.219-108.593-11.286c-11.919-2.566-23.695-4.65-33.273-13.059c-2.489-10.864,39.757-16.298,47.673-17.47
			c32.732-4.847,63.724-5.234,96.483-6.571c170.305-6.952,342.615-1.396,513.179,0.014c66.933,0.553,134.347-4.77,200.823,9.291
			C1461.53,1067.521,1488.612,1071.799,1475.216,1085.199z M1450.479,1077.296c-3.704-0.159-7.651,0.502-11.336-0.231
			c-26.827-5.336-54.73-9.172-82.156-10.382c-140.826-6.214-291.54-0.092-433.427,0.2c-70.023,0.144-141.808-3.773-212.302-0.093
			c-31.279,1.633-62.555,8.424-93.632,11.546c34.942,10.515,72.199,9.618,108.246,13.757c209.908-7.369,426.164,9.496,635.335,0.013
			c24.908-1.129,60.15-4.718,84.177-10.558C1448.958,1080.681,1451.5,1083.611,1450.479,1077.296z"/>
		<path d="M295.734,1340.056c-0.855,0.791-6.125-0.25-8.269,0.131c-2.433-2.343,3.152-26.511,6.086-30.258
			c2.675-3.416,10.891-1.418,10.771,3.893c-0.028,1.233-5.728,12.578-6.969,16.302
			C296.439,1332.872,296.104,1339.715,295.734,1340.056z"/>
	</g>
</g>
</svg>
