<?xml version="1.0" encoding="utf-8"?>
<!-- Generator: Adobe Illustrator 27.5.0, SVG Export Plug-In . SVG Version: 6.00 Build 0)  -->
<svg version="1.1" id="Layer_1" xmlns="http://www.w3.org/2000/svg" xmlns:xlink="http://www.w3.org/1999/xlink" x="0px" y="0px"
	 viewBox="0 0 5000 5000" style="enable-background:new 0 0 5000 5000;" xml:space="preserve">
<g>
	<path d="M1478.049,3973.805c-6.941-3.845-13.749-2.428-20.294-2.466c-36.662-0.213-73.328,0.008-109.989-0.355
		c-21.323-0.211-42.572-1.511-63.532-6.219c-27.539-6.184-50.939-19.603-70.177-39.936c-30.577-32.317-46.963-70.781-47.286-115.505
		c-0.276-38.324,12.563-72.137,38.672-100.026c10.69-11.419,15.817-23.755,17.901-38.832c5.292-38.268,10.963-76.505,17.547-114.57
		c23.386-135.209,47.182-270.347,70.896-405.499c12.433-70.856,24.918-141.703,37.583-212.517
		c5.509-30.8,10.616-61.713,17.488-92.218c21.523-95.538,111.124-164.238,208.6-169.228c21.941-1.123,43.978-0.334,65.97-0.525
		c6.499-0.057,12.994-0.457,17.583-0.628c2.197-1.929,2.838-2.283,3.152-2.827c0.317-0.547,0.313-1.281,0.441-1.936
		c0.128-0.653,0.281-1.305,0.356-1.965c0.074-0.661,0.067-1.331,0.092-1.997c0.025-0.666,0.051-1.332,0.065-1.999
		c0.014-0.666,0.015-1.333,0.02-2s0.011-1.333,0.014-2c0.003-0.667,0.003-1.333,0.004-2c0.001-0.667,0.002-1.333,0.003-2
		c0.001-0.667,0.001-1.333,0.001-2c0-1.333,0.001-2.666,0.001-4c0-749.267,0-1498.533,0.001-2247.8c0-0.667,0.001-1.333,0.001-2
		s0-1.333,0.001-2s0.002-1.333,0.004-2c0.002-0.667,0.002-1.333,0.006-2c0.004-0.667,0.01-1.333,0.018-2
		c0.009-0.666,0.016-1.333,0.036-1.999c0.02-0.666,0.037-1.333,0.088-1.998c0.051-0.662,0.115-1.325,0.222-1.98
		c0.108-0.657,0.211-1.327,0.436-1.949c0.216-0.595,0.586-1.134,1.6-3.026c2.87-0.435,6.621-1.325,10.406-1.505
		c5.986-0.284,11.995-0.102,17.995-0.102c1033.908,0.11,2067.816,0.218,3101.723,0.378c10.557,0.002,21.203-0.938,32.741,1.284
		c0.659,3.98,1.63,7.723,1.827,11.507c0.31,5.984,0.108,11.995,0.108,17.994c0.002,867.256,0.003,1734.512-0.01,2601.768
		c0,9.217-0.185,18.434-0.283,27.633c-8.036,4.321-15.479,2.892-22.57,2.921c-85.325,0.35-170.65,0.546-255.976,0.788
		c-6,0.017-12.005-0.074-17.994,0.203c-2.518,0.117-4.997,1.065-8.854,1.946c1.271,10.365,2.295,20.21,3.707,29.999
		c8.942,61.979,17.939,123.949,26.978,185.914c8.654,59.329,17.456,118.636,26.056,177.973
		c8.696,59.996,17.306,120.005,25.783,180.032c3.166,22.421,5.969,44.896,8.694,67.375c1.012,8.348,4.508,14.952,10.568,20.829
		c9.07,8.797,18.341,17.594,26.083,27.518c28.509,36.543,40.127,77.459,31.098,123.746c-11.166,57.24-53.667,99.12-111.739,107.657
		c-19.039,2.8-38.467,3.69-57.742,4.003c-41.986,0.684-83.988,0.397-125.984,0.61c-6.518,0.033-13.031,0.607-19.827,0.944
		c-3.376,9.331-2.153,18.059-2.835,26.526c-2.755,34.244,1.657,67.495,10.572,100.773c17.232,64.321,32.447,129.181,48.806,193.739
		c23.885,94.257,48.125,188.424,71.967,282.691c2.728,10.783,7.015,21.471,5.92,34.014c-7.644,3.298-15.425,4.015-23.362,3.502
		c-9.31-0.602-18.588-1.884-27.901-2.151c-7.73-0.222-12.433-4.021-15.389-10.585c-5.741-12.753-11.828-25.379-16.911-38.395
		c-14.779-37.846-29.015-75.903-43.677-113.795c-37.017-95.664-74.137-191.287-111.281-286.902
		c-1.658-4.268-3.951-8.289-6.116-12.769c-16.975-0.753-33.417-1.667-51.049,1.965c-0.811,55.629,4.908,110.534,7.51,166.19
		c-16.7,4.854-32.233,4.421-48.873,0.905c-10.529-27.308-17.727-55.646-26.593-83.42c-8.702-27.263-16.928-54.678-25.164-81.38
		c-6.728-4.754-13.606-3.208-20.125-3.228c-39.996-0.125-79.993-0.04-119.989-0.031c-720.603,0.145-1441.205,0.289-2161.807,0.432
		c-8.636,0.002-17.271,0-26.017,0c-9.068,8.327-12.747,19.162-17.343,29.337c-16.998,37.631-33.77,75.365-50.726,113.016
		c-2.443,5.424-5.424,10.605-7.921,15.44c-20.98,3.125-43.046,2.586-56.415-1.484c0.023-7.769,2.161-15.328,4.246-22.994
		c10.309-37.919,20.438-75.887,30.545-113.86c1.348-5.063,2.206-10.255,3.046-14.224c-0.977-1.878-1.146-2.556-1.578-2.939
		c-0.474-0.421-1.172-0.754-1.802-0.812c-3.959-0.361-7.926-0.885-11.891-0.895c-30.627-0.072-61.254-0.04-92.585-0.04
		c-9.078,7.934-12.247,19.725-16.404,30.81c-17.072,45.524-33.783,91.184-50.804,136.728
		c-32.88,87.975-65.845,175.917-98.879,263.834c-3.497,9.307-7.691,18.351-11.663,27.758c-20.875,6.58-41.186,2.184-61.498,1.421
		c-4.332-7.417-1.781-13.957-0.427-20.192c9.612-44.251,19.55-88.432,29.196-132.676c34.477-158.135,68.885-316.284,103.274-474.438
		C1477.241,3981.324,1477.537,3977.436,1478.049,3973.805z M3899.586,2363.426c-0.915-0.644-1.811-1.321-2.777-1.876
		c-0.092-0.053-0.621,0.654-0.947,1.008c1.391,0.088,2.783,0.175,4.174,0.263c-1.417,4.329,2.003,5.959,4.657,7.529
		c12.018,7.112,23.98,14.357,36.318,20.881c27.138,14.348,53.319,30.055,76.405,50.51c2.794,2.476,5.972,4.519,8.972,6.762
		c0.409-4.286-1.006-6.9-2.848-9.168c-17.692-21.787-32.37-45.436-45.098-70.451c-15.988-31.421-32.65-62.5-49.229-93.615
		c-1.603-3.007-2.058-8.224-8.942-6.824c0,5.623-0.078,11.442,0.023,17.257c0.093,5.323,0.371,10.642,0.583,15.962
		c0.239,5.985,0.534,11.969,0.733,17.955c0.199,5.987,0.315,11.976,0.454,17.964c0.123,5.323,0.357,10.648,0.303,15.97
		c-0.058,5.679,1.099,11.576-1.57,17.971C3912.97,2368.502,3906.304,2365.929,3899.586,2363.426z M4092.547,1960.966
		c-2.039,1.286-5.537,2.287-5.854,3.91c-1.139,5.827-1.531,11.859-1.621,17.822c-0.989,65.986-1.853,131.973-2.799,197.96
		c-0.101,7.044-0.51,14.085-0.851,23.095c-2.732-2.925-4.742-4.075-5.063-5.584c-2.08-9.76-3.974-19.568-5.589-29.416
		c-4.444-27.089-4.166-54.448-4.456-81.775c-0.934-87.986-1.893-175.972-2.92-263.957c-0.06-5.168-0.805-10.328-1.317-16.539
		c-7.986-0.672-15.237-0.801-22.298-2.026c-5.775-1.002-11.491-2.909-16.911-5.185c-3.493-1.466-3.994-7.746-0.776-10.328
		c2.938-2.357,6.617-4.586,10.236-5.145c9.695-1.496,19.532-2.065,30.243-3.091c0.189-8.894,0.502-16.799,0.504-24.705
		c0.111-377.967,0.193-755.933,0.287-1133.9c0.007-27.142,2.159-29.19,29.666-29.197c155.319-0.038,310.639-0.078,465.958-0.174
		c18.663-0.012,37.327-0.527,55.99-0.483c7.898,0.018,16.099-0.828,23.563,4.26c3.68,7.996,1.985,16.786,1.983,25.307
		c-0.072,295.974-0.253,591.948-0.417,887.922c-0.004,6.666-0.171,13.34,0.113,19.995c0.128,2.984,1.183,5.929,2.149,10.443
		c11.214-8.073,20.813-15.135,30.604-21.916c2.221-1.538,4.759-4.832,8.392-0.905c-11.607,13.809-22.963,27.705-34.774,41.204
		c-5.639,6.445-7.805,13.317-7.41,21.878c1.167,25.294,1.652,50.619,2.521,75.927c0.154,4.517,0.861,9.015,1.516,15.541
		c16.073-6.144,29.808-14.147,44.129-20.788c14.885-6.903,29.201-15.315,48.88-19.31c-4.444,4.685-6.362,7.174-8.728,9.117
		c-8.755,7.192-17.656,14.206-26.507,21.283c-17.178,13.736-34.153,27.741-51.64,41.073c-7.122,5.429-9.919,11.644-9.639,20.453
		c0.466,14.649-0.086,29.327,0.033,43.991c0.031,3.822,0.964,7.637,1.437,11.123c33.86,6.455,93.496,3.431,116.405-6.17
		c0.138-7.924,0.424-16.497,0.417-25.07c-0.366-421.296-0.757-842.592-1.15-1263.888c-0.005-5.333,0.228-10.688-0.187-15.99
		c-0.29-3.708-1.498-7.344-2.516-12.025c-8.949,0-16.871,0.001-24.794,0c-260.644-0.055-521.288-0.111-781.931-0.166
		c-5.333-0.001-10.682-0.235-15.993,0.112c-3.747,0.244-7.442,1.288-12.314,2.188c0,10.213-0.004,19.462,0,28.711
		c0.255,568.617,0.512,1137.233,0.769,1705.85c0.002,4.666,0.332,9.359-0.056,13.993c-0.663,7.92,2.596,13.676,7.669,19.647
		c13.364,15.728,26.378,31.801,38.692,48.361c29.455,39.613,55.992,81.17,80.996,123.723c2.698,4.592,4.184,10.614,11.97,13.497
		c-18.386-89.843-26.303-179.233-29.551-269.345c2.604,3.602,4.674,7.403,5.81,11.464c14.53,51.951,28.903,103.946,43.408,155.905
		c1.014,3.632,2.752,7.062,4.312,10.983c1.972-1.651,3.344-2.239,3.757-3.227c25.212-60.206,50.347-120.445,75.449-180.697
		c0.224-0.538-0.042-1.322-0.195-1.963c-0.14-0.588-0.436-1.14-0.84-2.147c-11.561-4.061-25.112,0.009-39.649-7.868
		c18.79-3.295,34.393-6.031,49.291-8.643c4.769-6.677,8.955-12.537,15.196-21.276c-0.611,9.757-1,15.971-1.462,23.336
		c55.691,4.363,108.984,15.238,163.924,30.171c-5.352-8.8-12.206-11.579-18.162-15.208c-29.688-18.089-57.422-38.752-83.338-61.924
		c-17.888-15.994-35.811-31.966-54.172-47.408c-29.172-24.535-59.74-46.976-96.152-60.001c-1.773-0.634-3.226-2.164-4.896-3.321
		c19.169-1.023,36.665,5.795,54.057,12.25c23.163,8.597,44.867,20.404,65.778,33.466c60.435,37.748,120.595,75.929,177.75,118.605
		c1.832,1.368,4.095,2.156,6.158,3.214c-0.962-4.826-3.308-7.863-5.624-10.925c-12.444-16.46-25.825-32.303-37.151-49.5
		c-44.327-67.292-88.015-135.005-131.87-202.607c-1.249-1.924-1.714-4.356-3.405-8.821c9.909,4.004,16.171,8.797,21.881,14.092
		c13.667,12.673,27.319,25.391,40.396,38.664c51.551,52.329,99.233,107.812,137.674,170.733c2.775,4.542,5.687,9.02,8.842,13.302
		c1.249,1.693,3.335,2.767,6.976,5.663c-1.372-9.895-2.178-17.116-3.394-24.269c-13.172-77.428-26.369-154.851-39.733-232.246
		c-0.751-4.355-3.025-8.447-4.919-13.546c-7.248,0-13.832-0.204-20.401,0.035c-27.958,1.021-55.918,2.028-83.863,3.347
		c-11.289,0.533-22.593,1.452-33.797,2.91c-14.504,1.888-28.894,4.643-43.382,6.659c-2.958,0.411-6.909,0.213-6.452-5.939
		c5.672-2.299,11.621-5.341,17.923-7.139c15.985-4.559,32.124-8.577,48.212-12.773c5.754-1.5,11.828-2.197,18.438-6.648
		c-34.58-2.85-177.703-4.742-193.786-2.692c-4.511,7.151-3.825,15.226-3.72,23.176c0.292,21.975,0.735,43.949,0.95,65.924
		c0.156,15.987,0.263,31.98-0.048,47.962C4085.236,1950.472,4087.086,1956.34,4092.547,1960.966z M3565.607,3482.93
		c-5.369-24.622,2.553-47.316,9.933-70.019c3.909-12.026,8.503-23.834,12.953-35.678c29.081-77.401,54.31-155.997,72.73-236.659
		c15.138-66.288,27.064-133.138,34.625-200.762c3.333-29.817,6.161-59.613,7.174-89.624c0.377-11.162,2.779-22.476,5.832-33.276
		c4.427-15.662,26.443-30.545,44.876-23.53c9.312,3.544,19.077,5.905,28.655,8.739c47.895,14.174,95.51,29.397,143.755,42.259
		c90.208,24.049,181.636,42.149,274.501,52.732c63.638,7.252,127.346,12.408,191.466,10.678c5.985-0.162,12.046-0.169,17.972,0.557
		c24.618,3.017,36.402,19.107,31.362,43.369c-2.162,10.403-5.508,20.581-8.667,30.751c-11.067,35.618-22.964,70.994-33.312,106.817
		c-24.624,85.233-42.941,171.888-55.375,259.719c-5.792,40.921-9.713,82.03-6.821,123.558c0.918,13.193-0.424,26.624-1.61,39.868
		c-2.466,27.523-17.011,46.981-41.304,59.552c-3.888,2.012-7.623,4.32-12.282,6.978c3.149,4.764,6.957,6.136,10.4,7.755
		c45.22,21.255,90.521,42.335,135.682,63.714c11.722,5.549,24.029,7.759,36.742,8.416c6.651,0.344,13.339,0.452,19.992,0.182
		c30.575-1.24,59.492,5.738,87.543,17.234c5.455,2.236,10.976,4.312,17.337,6.803c0.215-3.804,0.792-6.465,0.441-8.997
		c-2.927-21.115-6.04-42.205-9.067-63.306c-7.381-51.435-14.762-102.87-22.114-154.309c-7.352-51.439-14.666-102.884-22.006-154.325
		c-7.34-51.441-14.725-102.876-22.031-154.323c-6.088-42.873-12.265-85.734-18.078-128.644c-5.009-36.967-9.626-73.988-14.291-111
		c-3.588-28.467-7.407-56.888-19.358-83.375c-32.177-71.309-87.505-112.692-164.387-124.403c-22.934-3.494-46.517-3.295-69.82-3.657
		c-30.654-0.477-61.325,0.298-91.988,0.301c-695.279,0.072-1390.558,0.072-2085.837,0.19
		c-149.321,0.025-298.642,0.455-447.963,0.713c-20.706,0.036-41.23,1.705-61.556,6.012
		c-69.738,14.776-140.744,70.273-155.221,158.668c-7.964,48.629-18.412,96.846-26.979,145.383
		c-18.063,102.332-35.57,204.761-53.41,307.133c-20.241,116.152-40.606,232.282-60.855,348.432
		c-0.526,3.015-0.334,6.156-0.549,10.792c6.612-2.323,11.666-3.782,16.464-5.839c19.852-8.509,40.46-13.301,62.123-13.15
		c28.658,0.2,57.334-0.087,85.966,0.9c12.243,0.422,22.107-2.158,30.354-11.453c9.873-11.128,22.618-18.458,35.469-25.634
		c24.022-13.415,49.872-22.119,75.989-30.22c3.576-1.11,8.225-0.626,9.857-6.509c-3.108-5.071-6.544-10.691-9.994-16.303
		c-14.088-22.923-19.898-47.761-17.296-74.558c0.773-7.962,1.21-15.968,2.295-23.885c4.54-33.133,5.129-66.419,4.23-99.772
		c-1.64-60.847-10.522-120.769-23.94-180.018c-13.971-61.689-26.164-123.828-45.588-184.183
		c-6.12-19.017-11.912-38.156-17.194-57.42c-2.266-8.263-3.709-16.96-3.988-25.51c-0.391-11.963,6.226-20.244,17.301-24.263
		c5.56-2.018,11.621-3.024,17.54-3.586c6.61-0.627,13.328-0.508,19.979-0.233c37.29,1.544,74.56,3.882,111.864,4.739
		c82.123,1.887,163.973-2.584,245.104-15.581c55.226-8.847,110.349-18.731,165.046-30.369
		c51.402-10.938,103.045-21.431,152.775-39.184c8.111-2.896,16.643-5.003,25.16-6.283c14.471-2.175,23.478,3.588,26.826,17.6
		c2.147,8.986,3.063,18.407,3.361,27.67c1.495,46.625,2.203,93.278,3.939,139.893c3.178,85.318,10.962,170.226,24.857,254.502
		c8.249,50.028,19.331,99.404,37.377,146.935c10.648,28.046,21.759,55.896,25.453,85.984c0.155,1.259,1.042,2.427,1.776,4.056
		c8.14,2.799,16.864,1.581,25.402,1.613c251.974,0.918,503.947,1.792,755.921,2.523c79.991,0.232,159.983,0.199,239.973-0.016
		c63.987-0.172,127.973-0.729,191.957-1.331C3548.9,3485.386,3557.017,3486.454,3565.607,3482.93z M4087.477,617.721
		c-3.119,9.21-1.973,17.894-1.975,26.399c-0.083,314.632-0.099,629.265-0.123,943.897c0,4.666-0.26,9.354,0.107,13.992
		c0.354,4.463,1.365,8.875,2.143,13.653c12.501,3.013,24.07,6.149,35.788,8.56c32.169,6.62,62.765,17.629,92.307,31.861
		c37.305,17.972,72.817,39.045,107.071,62.199c23.18,15.668,45.695,32.319,68.643,48.334c2.34,1.633,4.553,5.261,9.254,2.489
		c-2.336-2.491-4.339-4.934-6.649-7.043c-34.558-31.546-66.087-65.957-94.506-103.038c-46.214-60.3-91.618-121.222-137.313-181.92
		c-1.062-1.41-1.518-3.277-3.58-7.896c5.033,3.197,7.715,4.573,10.02,6.419c13.524,10.83,27.175,21.516,40.389,32.715
		c65.36,55.392,124.038,117.068,174.559,186.372c2.662,3.651,2.713,3.614,10.344,7.433c-4.135-10.522-7.684-20.535-11.961-30.226
		c-8.659-19.622-14.587-40.056-18.601-61.038c-13.266-69.343-26.368-138.718-39.411-208.103c-0.6-3.193-0.031-6.606-0.007-9.916
		c4.899,6.548,7.729,13.205,10.134,20.011c16.64,47.101,33.163,94.243,49.781,141.351c14.203,40.263,25.537,81.317,34.161,123.124
		c0.877,4.256,1.563,8.551,3.112,17.1c8.965-20.995,11.434-39.441,17.187-56.835c5.854-17.7,10.901-35.669,16.867-53.328
		c5.752-17.031,12.006-33.903,18.444-50.691c6.677-17.411,13.675-34.705,20.836-51.923c7.162-17.22,14.304-34.469,22.184-51.365
		c7.739-16.593,12.202-34.848,24.579-51.947c2.352,8.347,0.901,13.995-0.235,19.6c-12.044,59.397-23.694,118.878-36.318,178.152
		c-11.103,52.135-23.309,104.031-46.73,152.445c-1.015,2.098-3.017,4.636,0.804,7.575c8.499-7.504,13.959-17.456,19.657-27.034
		c25.791-43.35,58.471-80.992,95.387-115.029c14.158-13.054,29.437-24.894,44.753-37.746c0.243-2.093,0.815-4.707,0.813-7.32
		c-0.222-309.283-0.487-618.567-0.771-927.85c0-0.633-0.212-1.328-0.528-1.88c-0.32-0.562-0.889-0.982-1.293-1.405
		c-19.679-3.161-408.395-4.275-517.534-1.443C4095.419,616.528,4091.59,617.255,4087.477,617.721z M2314.063,1922.491
		c2.841-9.418,1.722-18.089,1.726-26.608c0.103-269.275,0.134-538.55,0.173-807.825c0.001-5.999,0.186-12.008-0.111-17.992
		c-0.186-3.757-1.113-7.478-1.846-12.085c-8.322-0.274-15.547-0.718-22.772-0.72c-178.628-0.038-357.256-0.03-535.884-0.028
		c-3.999,0-8.039-0.316-11.985,0.146c-3.732,0.437-7.366,1.705-11.935,2.826c0,8.761-0.002,16.718,0,24.674
		c0.068,269.942,0.135,539.883,0.205,809.825c0.001,5.332-0.23,10.681,0.122,15.991c0.25,3.769,1.301,7.486,1.927,10.858
		C1750.327,1923.757,2290.905,1924.649,2314.063,1922.491z M3847.534,1923.67c0.215-9.219,0.517-16.437,0.533-23.655
		c0.641-271.287,1.257-542.574,1.873-813.861c0.012-5.332,0.191-10.674-0.075-15.994c-0.19-3.819-0.992-7.607-1.555-11.653
		c-8.733-2.644-16.731-1.642-24.583-1.627c-167.305,0.313-334.61,0.701-501.915,1.076c-6.666,0.015-13.341-0.159-19.993,0.16
		c-4.457,0.214-8.88,1.144-14.482,1.913c-0.132,8.091-0.353,15.333-0.353,22.576c0.01,271.955,0.04,543.91,0.069,815.864
		c0,3.999-0.157,8.009,0.073,11.995c0.22,3.806,0.851,7.588,1.385,12.078c4.297,0.453,7.498,1.085,10.698,1.085
		C3481.082,1923.675,3662.953,1923.67,3847.534,1923.67z M2951.514,3679.101c-12.773,0-20.714,0.001-28.654,0
		c-432.565-0.086-865.13-0.105-1297.694-0.309c-97.306-0.046-194.612-0.808-291.919-1.025c-10.625-0.024-21.369,0.644-31.857,2.275
		c-26.847,4.175-51.768,13.304-71.212,33.199c-33.903,34.689-49.569,75.905-38.742,124.09
		c11.622,51.722,42.505,87.942,92.935,106.489c15.425,5.674,31.472,4.92,47.441,4.924c508.547,0.101,1017.095,0.18,1525.643,0.247
		c23.328,0.003,46.656-0.064,69.982-0.277c3.646-0.033,7.964,1.177,10.465-3.007c-0.165-1.4,0.107-2.945-0.524-3.879
		c-14.108-20.877-16.748-44.698-17.065-68.855c-0.455-34.642-0.322-69.296-0.026-103.941c0.091-10.634,1.557-21.255,2.358-31.884
		c1.241-16.476,7.43-30.946,17.658-43.795C2943.075,3689.87,2945.81,3686.356,2951.514,3679.101z M3768.966,3948.326
		c0,0.065,0,0.131,0,0.196c251.941,0,503.882,0.007,755.823-0.028c7.994-0.001,15.992-0.302,23.979-0.668
		c23.941-1.095,45.695-8.943,65.35-22.343c24.091-16.425,40.516-38.47,46.12-67.505c7.764-40.217-0.587-76.811-26.381-108.893
		c-17.91-22.277-40.669-38.246-67.005-49.134c-32.385-13.389-65.978-20.174-101.184-20.33
		c-108.639-0.481-217.277-2.382-325.914-2.256c-375.913,0.435-751.825,1.495-1127.737,2.319c-2.666,0.006-5.339,0.178-7.997,0.041
		c-29.559-1.525-59.972,29.951-61.323,55.599c-0.91,17.274-2.154,34.563-2.14,51.845c0.019,23.982,1.136,47.963,1.665,71.947
		c0.25,11.326,0.254,22.659,0.315,33.989c0.068,12.553,4.594,23.321,12.614,32.86c12.555,14.932,26.771,26.104,47.987,22.362
		C3258.413,3948.326,3513.689,3948.326,3768.966,3948.326z M1731.651,1947.58c0,8.794,0.006,16.722-0.001,24.649
		c-0.184,224.564-0.37,449.128-0.554,673.692c-0.005,5.331-0.166,10.669,0.069,15.99c0.167,3.785,0.878,7.545,1.501,12.568
		c8.985,0.215,16.854,0.566,24.722,0.568c127.942,0.034,255.883,0.024,383.825,0.024c51.31,0,102.62,0.062,153.929-0.079
		c6.482-0.018,13.359,1.691,19.88-2.962c2.2-7.445,1.258-15.488,1.258-23.406c-0.003-131.273-0.088-262.547-0.148-393.82
		c-0.043-95.29-0.037-190.58-0.189-285.869c-0.011-7.115,1.494-14.557-2.131-21.372c-2.278-0.653-4.159-1.664-6.042-1.666
		c-189.243-0.274-378.485-0.476-567.728-0.609C1738.178,1945.286,1736.312,1946.27,1731.651,1947.58z M3918.148,2463.65
		c-26.947,3.145-53.802,2.559-68.042-1.582c-0.203-30.69-0.409-61.803-0.618-93.21c-24.442-18.306-48.268-36.15-72.094-53.994
		c24.823,3.29,45.249,17.845,68.973,23.379c2.136-13.313,3.688-354.276,1.785-382.411c-0.169-2.502-1.291-4.94-2.314-8.659
		c-8.177-0.236-16.026-0.654-23.875-0.662c-168.569-0.167-337.139-0.29-505.708-0.408c-5.995-0.004-12.012-0.144-17.976,0.321
		c-3.131,0.244-6.17,1.664-9.583,2.65c-0.536,3.35-1.298,5.89-1.297,8.43c0.122,236.528,0.298,473.056,0.549,709.584
		c0.002,1.833,1.084,3.666,1.984,6.521c3.015,0.458,6.159,1.243,9.331,1.372c58.95,2.398,530.701,1.022,548.367-1.702
		c0.591-4.14,1.779-8.602,1.783-13.065c0.046-49.971-0.034-99.942-0.277-149.913c-0.021-4.362-1.432-8.718-2.283-13.558
		c-20.201-2.249-39.412-3.99-58.5-6.626c-18.429-2.546-37.376-2.107-56.378-8.149c2.347-1.534,3.337-2.563,4.517-2.878
		c3.209-0.855,6.47-1.652,9.761-2.043c45.092-5.351,90.318-7.268,135.641-4.021c41.854,3,83.663,6.624,125.502,9.844
		c2.168,0.167,5.313,1.68,6.709-3.032c-1.593-1.462-3.282-3.394-5.322-4.829c-27.24-19.157-54.519-38.261-81.859-57.278
		c-0.835-0.581-2.427-0.073-5.102-0.073C3918.255,2432.269,3921.239,2447.761,3918.148,2463.65z M3262.229,1921.924
		c0.911-2.437,2.181-4.248,2.183-6.061c0.252-282.574,0.418-565.149,0.502-847.723c0.001-2.53-1.134-5.061-1.648-7.214
		c-6.851-3.646-13.643-2.35-20.204-2.349c-129.96,0.03-259.92,0.155-389.88,0.262c-3.332,0.003-6.69-0.224-9.99,0.112
		c-3.744,0.381-7.436,1.277-12.335,2.163c0,8.928-0.006,16.836,0.001,24.744c0.223,269.917,0.447,539.834,0.672,809.751
		c0.005,5.332-0.263,10.686,0.149,15.987c0.292,3.754,1.516,7.435,2.472,11.826c140.795,0,280.707,0.008,420.619-0.064
		C3257.294,1923.358,3259.818,1922.408,3262.229,1921.924z M2766.158,1060.145c-3.449-1.096-5.317-2.211-7.185-2.21
		c-136.662,0.024-273.325,0.129-409.987,0.308c-2.553,0.003-5.106,0.974-8.912,1.749c-1.659,8.496-1.038,17.126-1.037,25.661
		c0.047,269.996,0.13,539.993,0.211,809.989c0.002,5.333-0.261,10.689,0.146,15.992c0.287,3.744,1.501,7.417,2.344,11.318
		c138.975,0,276.921,0.008,414.867-0.066c2.5-0.001,4.999-0.995,7.999-1.633c0.592-3.09,1.495-5.6,1.495-8.11
		C2766.162,1629.196,2766.158,1345.251,2766.158,1060.145z M1459.523,3654.362c11.185,2.643,19.05,1.779,26.782,1.772
		c951.311-0.818,1902.622-1.684,2853.933-2.55c5.333-0.005,10.679,0.149,15.992-0.188c2.28-0.145,5.656,0.584,6.048-4.476
		c-4.177-2.268-8.596-4.976-13.262-7.151c-29.588-13.792-59.346-27.222-88.83-41.23c-55.531-26.385-114.428-39.678-175.291-44.612
		c-44.496-3.607-89.125-5.555-133.675-8.528c-28.587-1.908-57.174-3.969-85.698-6.636c-27.197-2.542-54.335-5.765-81.457-9.037
		c-39.687-4.788-79.432-9.229-118.975-15.032c-42.301-6.208-84.654-10.217-127.439-9.435c-25.326,0.463-50.662,0.573-75.993,0.589
		c-293.993,0.191-587.986,0.384-881.979,0.457c-74.664,0.019-149.328-0.354-223.992-0.607c-26.025-0.088-52.118-0.122-77.667,5.299
		c-28.76,6.102-57.738,9.781-87.006,12.303c-64.399,5.549-128.715,12.06-193.087,17.927
		c-61.714,5.625-123.484,10.638-185.179,16.462c-67.727,6.393-134.845,16.81-201.096,32.468
		c-40.291,9.522-79.775,21.43-117.008,39.894C1483.346,3637.656,1472.146,3643.485,1459.523,3654.362z M2315.209,1033.798
		c0.284-10.183,0.697-18.034,0.693-25.885c-0.086-175.267-0.218-350.534-0.343-525.801c-0.003-4.665,0.233-9.35-0.125-13.988
		c-0.289-3.749-1.306-7.442-2.207-12.265c-8.866,0-16.782,0.002-24.699,0c-158.607-0.042-317.213-0.085-475.82-0.127
		c-22.658-0.006-45.317-0.064-67.974,0.053c-3.796,0.02-7.588,0.812-11.012,1.205c-2.64,15.772-3.835,336.751-2.239,556.593
		c0.043,5.857,0.634,11.709,0.992,17.965c3.368,0.914,5.831,2.166,8.294,2.167
		C1931.324,1033.806,2121.878,1033.798,2315.209,1033.798z M3289.13,455.737c-2.739,20.128-2.723,559.53-0.302,576.283
		c7.996,4.25,16.822,2.354,25.305,2.352c168.651-0.03,337.302-0.2,505.953-0.345c5.333-0.005,10.682,0.203,15.992-0.151
		c3.775-0.251,7.498-1.282,10.851-1.893c3.039-20.317,3.367-454.287,0.566-562.771c-0.099-3.826-0.654-7.641-1.08-12.403
		c-4.242-0.429-7.427-1.032-10.613-1.032C3653.903,455.733,3472.003,455.737,3289.13,455.737z M2831.416,2673.522
		c9.728,2.569,17.715,1.743,25.575,1.747c125.995,0.054,251.989,0.039,377.984,0.037c6,0,12.012,0.21,17.994-0.114
		c3.737-0.203,7.43-1.227,10.708-1.805c2.492-16.663,3.625-672.833,1.351-716.966c-0.164-3.185-1.15-6.327-1.687-9.141
		c-17.296-3.061-244.282-3.689-412.447-1.259c-5.878,0.085-11.748,0.721-17.895,1.118c-0.667,3.703-1.526,6.247-1.527,8.792
		C2831.412,2194.542,2831.416,2433.154,2831.416,2673.522z M2339.79,1950.265c-0.455,9.471-1.252,18.703-1.271,27.937
		c-0.044,20.651,0.478,41.304,0.458,61.956c-0.19,200.539-0.444,401.077-0.679,601.616c-0.008,6.662-0.175,13.331,0.061,19.985
		c0.135,3.804,0.933,7.585,1.588,12.553c8.09,0.274,15.283,0.726,22.476,0.729c125.919,0.043,251.839,0.031,377.758,0.029
		c3.997,0,8.038,0.328,11.98-0.144c4.448-0.532,8.809-1.797,14.099-2.935c0.443-10.127,1.16-19.379,1.187-28.632
		c0.05-17.32-0.432-34.641-0.463-51.962c-0.366-205.202-0.688-410.403-1.025-615.605c-0.01-5.996,0.18-12.005-0.151-17.984
		c-0.211-3.802-1.215-7.56-2.028-12.297c-7.384-0.25-13.922-0.665-20.459-0.661c-38.642,0.023-77.284,0.115-115.926,0.238
		c-87.277,0.277-174.554,0.545-261.831,0.947C2357.689,1946.071,2349.506,1944.61,2339.79,1950.265z M2832.051,456.386
		c-0.284,9.315-0.692,16.523-0.696,23.733c-0.113,176.558-0.183,353.116-0.26,529.674c-0.002,3.998-0.177,8.007,0.07,11.989
		c0.235,3.769,0.92,7.509,1.526,12.172c7.735,0.33,14.284,0.855,20.832,0.852c128.587-0.068,257.175-0.197,385.762-0.324
		c4.663-0.005,9.356,0.183,13.977-0.288c3.143-0.321,6.185-1.636,8.951-2.416c3.503-8.499,2.171-16.585,2.191-24.465
		c0.428-174.559,0.755-349.118,1.098-523.677c0.01-5.33,0.297-10.685-0.125-15.982c-0.295-3.703-1.58-7.326-2.488-11.269
		C3119.374,456.386,2976.918,456.386,2832.051,456.386z M2766.927,1032.593c0-8.785,0.004-16.732,0-24.679
		c-0.109-175.229-0.218-350.458-0.329-525.688c-0.003-4.664,0.215-9.345-0.115-13.986c-0.27-3.795-1.204-7.542-2.015-12.322
		c-8.069-0.132-15.313-0.358-22.557-0.354c-95.277,0.053-190.553,0.139-285.83,0.217c-33.313,0.027-66.627-0.013-99.94,0.154
		c-5.075,0.026-10.145,1.012-14.531,1.481c-0.97,2.659-1.729,3.854-1.799,5.087c-0.263,4.649-0.412,9.311-0.41,13.968
		c0.101,183.881,0.223,367.762,0.373,551.644c0,0.622,0.402,1.267,0.703,1.858c0.286,0.562,0.685,1.067,1.645,2.525
		c3.742,0.712,8.215,2.092,12.75,2.342C2394.17,1037.006,2750.264,1035.314,2766.927,1032.593z M4483.115,2801.775
		c0-11.269-0.001-18.569,0-25.868c0.021-155.901,0.043-311.802,0.064-467.704c0.004-28.649,0.086-57.298-0.076-85.945
		c-0.025-4.435-1.167-8.864-1.745-12.963c-27.98-4.039-170.75-12.501-184.892-10.942c-3.303,5.252-6.903,10.832-10.36,16.5
		c-22.198,36.388-44.682,72.608-66.46,109.247c-24.202,40.716-50.406,80.007-79.853,117.127c-2.223,2.801-5.947,5.179-4.492,11.389
		c4.583-3.593,8.609-6.71,12.593-9.881c35.471-28.228,71.823-55.217,110.76-78.553c31.506-18.882,64.282-35.167,99.271-46.529
		c15.651-5.082,31.558-9.838,48.639-9.519c-1.203,5.563-5.536,6.298-8.948,7.876c-26.75,12.373-51.252,28.348-74.513,46.312
		c-13.708,10.586-27.504,21.07-40.958,31.972c-27.474,22.262-56.123,42.82-86.431,61.061c-6.269,3.773-12.319,7.919-18.398,12.001
		c-2.646,1.777-5.91,3.351-4.313,8.486c93.593-5.27,187.243-5.292,280.539,10.389c-2.667,2.372-5.479,4.073-8.444,4.404
		c-9.926,1.111-19.909,1.703-29.866,2.547c-59.06,5.006-118.111,10.128-177.181,15.007c-39.163,3.236-78.36,6.074-117.53,9.235
		c-6.552,0.529-13.044,1.799-19.825,2.763c-0.637,3.35-1.54,5.908-1.548,8.469c-0.147,45.969-0.216,91.939-0.164,137.909
		c0.002,2.428,1.225,4.854,2.072,7.996c7.236,0.279,13.792,0.719,20.352,0.752c37.975,0.191,75.96-0.186,113.922,0.594
		c21.937,0.451,43.941,1.821,65.729,4.367c34.767,4.063,67.663,14.485,97.422,33.463c27.319,17.422,50.386,39.183,67.816,66.738
		C4470.41,2786.981,4473.709,2794.298,4483.115,2801.775z M4642.185,2880.641c-9.065,0.263-15.608,0.591-22.152,0.62
		c-32.646,0.143-65.294,0.131-97.939,0.377c-5.052,0.038-10.098,1.134-16.164,1.864c0.141,15.235,0.702,29.166,3.238,42.824
		c2.507,13.496-0.827,28.02,6.878,41.401c5.371,0.339,10.621,0.895,15.875,0.957c11.991,0.142,23.984-0.045,35.976,0.056
		c54.631,0.458,109.262,1.037,163.894,1.38c7.13,0.045,14.662,1.959,22.561-3.383c0.095-7.193,0.29-15.089,0.292-22.985
		c0.093-240.52,0.167-481.041,0.242-721.561c0.002-5.996,0.212-12.005-0.109-17.984c-0.203-3.779-1.213-7.514-1.842-11.161
		c-12.985,0-24.909-0.336-36.805,0.092c-12.642,0.455-25.289,1.324-37.875,2.592c-11.608,1.169-23.833-1.831-36.068,4.708
		C4642.185,2426.221,4642.185,2651.924,4642.185,2880.641z M4505.995,2210.735c0,7.697,0.002,15.637,0,23.576
		c-0.051,199.2-0.103,398.401-0.151,597.601c-0.002,5.33-0.256,10.681,0.148,15.981c0.283,3.715,1.487,7.36,2.195,10.644
		c32.802,3.233,96.949,2.31,111.321-1.775c0.125-7.543,0.358-15.455,0.375-23.367c0.426-202.531,0.83-405.061,1.236-607.592
		c0.01-4.664,0.252-9.346-0.086-13.985c-0.278-3.793-1.263-7.535-2.149-12.502c-29.967,0.521-59.19,0.708-88.382,1.752
		C4522.703,2201.347,4514.573,2203.061,4505.995,2210.735z M4754.538,1806.821c-5.53-0.426-10.102-1.059-14.676-1.078
		c-15.329-0.062-30.661,0.247-45.989,0.125c-13.323-0.107-26.641-0.781-39.964-0.885c-14.236-0.112-17.625,4.174-15.13,18.457
		c0.343,1.964,1.105,3.866,1.341,5.837c1.022,8.532,2.842,17.094,2.713,25.619c-0.76,49.974-2.008,99.942-3.016,149.913
		c-0.075,3.713,0.435,7.438,0.756,12.445c9.712-2.614,14.645-9.194,20.794-13.808c6.394-4.797,12.471-10.016,18.838-14.851
		c6.898-5.237,13.857-10.411,21.003-15.302c6.593-4.513,13.333-8.851,20.259-12.828c6.604-3.792,13.012-8.249,22.56-10.709
		c-2.126,3.565-2.792,5.439-4.064,6.703c-29.764,29.591-59.655,59.054-89.343,88.721c-4.142,4.139-8.418,8.746-10.723,13.978
		c-3.182,7.223-0.589,30.451,3.846,43.152c36.227-14.265,72.169-29.384,110.585-39.363c1.519-42.917,0.008-84.776,1.774-126.556
		C4756.388,1929.632,4756.12,1817.08,4754.538,1806.821z M3921.273,2505.371c-0.752,3.329-1.551,5.226-1.556,7.125
		c-0.137,51.318-0.22,102.636-0.177,153.954c0.002,2.435,1.243,4.87,1.856,7.118c2.767,0.656,4.658,1.495,6.55,1.495
		c46.652,0.005,93.304-0.045,139.956-0.249c2.41-0.011,4.813-1.478,7.336-2.305c0.533-3.216,1.331-5.805,1.336-8.396
		c0.09-43.988,0.147-87.976-0.023-131.963c-0.014-3.743-1.685-7.479-2.471-10.744
		C4053.769,2516.118,3940.01,2504.143,3921.273,2505.371z M4185.56,1780.222c-6.892-2.13-13.84-4.091-20.658-6.438
		c-6.973-2.401-15.127-2.29-22.513-9.658c22.953,0,43.538,0.088,64.123-0.023c24.646-0.133,49.221,0.6,73.646,4.302
		c9.863,1.495,19.784,2.646,29.708,3.687c2.276,0.239,5.274,1.276,7.301-3.416c-3.249-2.419-6.721-5.077-10.267-7.633
		c-20.506-14.782-41.928-28.452-61.366-44.522c-46.541-38.475-97.726-69.034-152.632-93.689c-1.64-0.736-3.704-0.527-6.065-0.82
		c-0.517,2.969-1.348,5.531-1.354,8.095c-0.101,47.263-0.142,94.527-0.038,141.789c0.007,3.095,1.283,6.188,1.876,8.861
		C4103.9,1783.709,4163.258,1784.987,4185.56,1780.222z M4179.132,2136.348c-36.156,90.958-56.727,183.21-72.225,280.921
		c4.714-5.128,7.14-7.194,8.863-9.737c9.699-14.314,19.135-28.807,28.838-43.118c13.433-19.813,26.723-39.731,40.612-59.222
		c23.233-32.604,49.964-62.179,78.995-89.732c5.647-5.36,12.137-10.288,15.392-18.798c-12.554-6.394-26.514-1.332-40.507-6.822
		c9.436-7.101,19.814-6.596,29.021-8.957c9.935-2.546,21.257-0.787,29.504-10.719c-3.041-1.529-5.218-3.108-7.646-3.771
		C4253.538,2156.439,4217.063,2146.606,4179.132,2136.348z M4502.395,2071.62c2.914-6.599,6.094-13.095,8.699-19.815
		c16.185-41.758,36.495-81.447,60.034-119.489c12.617-20.39,24.901-41.08,41.883-58.337c4.464-4.537,6.955-9.68,6.829-16.031
		c-0.145-7.257,0.978-14.661-2.178-21.498c-23.209-7.996-86.257-11.598-107.58-5.82c-0.978,26.24-1.99,52.845-2.954,79.453
		c-0.988,27.31-2.354,54.616-2.769,81.935C4503.958,2018.515,4496.674,2044.563,4502.395,2071.62z M4465.765,2075.077
		c5.881-19.881,7.297-40.295,10.463-60.399c3.204-20.357,6.359-40.721,9.416-61.101c3.153-21.038,6.547-42.052,9.123-63.163
		c2.464-20.187,7.876-40.079,7.613-60.501c-18.03-2.877-82.188-2.279-99.979,1.15
		C4430.396,1910.671,4448.591,1992.601,4465.765,2075.077z M4754.413,2169.454c0-30.376,0.039-59.645-0.096-88.913
		c-0.008-1.724-1.409-3.442-2.297-5.47c-2.208,0.166-4.449-0.308-5.937,0.54c-35.261,20.104-70.441,40.352-105.467,60.475
		c-0.131,11.064-2.979,21.051,3.638,29.719C4666.458,2169.189,4738.45,2171.843,4754.413,2169.454z M4619.721,1894.492
		c-3.911,5.329-5.396,6.72-6.121,8.432c-29.813,70.449-59.574,140.919-89.218,211.439c-0.745,1.771-0.094,4.128-0.094,7.284
		c16.009-16.333,30.267-32.165,45.914-46.479c15.638-14.306,32.665-27.092,50.577-41.77
		C4616.533,1989.229,4625.051,1944.172,4619.721,1894.492z M4475.714,1771.109c0.905,0.78,1.81,1.56,2.714,2.341
		c4.263-3.111,8.691-6.023,12.763-9.367c22.168-18.202,46.233-33.57,71.132-47.675c15.03-8.515,30.257-16.684,45.315-25.151
		c4.562-2.565,8.854-5.61,12.698-8.07c1.967-28.861,0.346-74.829-3.304-88.875c-5.931,4.002-9.044,9.857-12.92,14.865
		c-39.847,51.475-76.226,105.705-121.566,152.819C4479.933,1764.711,4477.976,1768.057,4475.714,1771.109z M4619.262,1722.163
		c-9.738,8.003-15.742,12.946-21.757,17.877c-5.626,4.613-11.156,9.352-16.925,13.779c-6.292,4.829-12.873,9.281-19.214,14.05
		c-6.053,4.552-13.669,7.15-19.226,13.9c21.417,3.354,61.601,1.267,77.122-3.82
		C4619.262,1761.094,4619.262,1744.118,4619.262,1722.163z M4619.085,2076.539c-19.897,19.688-36.49,35.839-52.745,52.325
		c-6.511,6.603-12.389,13.847-18.292,21.016c-1.377,1.672-4.002,4.098,0.575,7.248c23.09-13.162,46.618-26.574,70.461-40.165
		C4619.085,2104.456,4619.085,2092.754,4619.085,2076.539z M4617.17,2167.648c5.213-7.76,5.326-13.593,1.083-20.477
		c-8.335,3.722-12.698,9.228-16.06,18.065C4607.97,2166.167,4612.17,2166.843,4617.17,2167.648z M4619.658,1810.934
		c-17.481-4.901-17.487-4.952-27.478,0.214C4600.763,1812.068,4607.984,1814.724,4619.658,1810.934z M4321.355,2174.251
		c-1.119-2.064-1.445-3.716-2.372-4.187c-3.553-1.808-7.979,1.23-7.903,5.422c0.017,0.927,1.663,2.726,1.979,2.605
		C4315.883,2177.011,4318.578,2175.591,4321.355,2174.251z"/>
	<path d="M963.33,3115.645c-1.688,0.819-3.908,1.206-4.98,2.525c-10.455,12.871-21.208,25.548-30.823,39.031
		c-4.62,6.479-9.609,10.524-17.414,11.617c-3.904,0.547-7.625,2.295-11.51,3.114c-10.524,2.219-20.168,5.929-28.527,13.133
		c-7.55,6.507-16.167,11.486-26.081,11.814c-1.523,5.732,1.586,7.832,4.837,6.457c9.742-4.12,19.274-8.84,28.547-13.945
		c14.614-8.045,29.832-14.305,47.098-18.313c3.681,4.199,7.448,8.497,11.82,13.483c-0.569-3.919-1.021-7.036-1.661-11.44
		c19.776-6.163,39.966-5.362,61.624-4.15c4.764,7.35,9.647,15.145,14.796,22.759c6.253,9.247,12.73,18.343,19.145,27.538
		c0.035,0.035-0.625-0.55-0.625-0.55c1.384,3.745,2.768,7.491,4.498,12.172c-3.372,1.588-6.703,3.571-10.299,4.738
		c-3.779,1.226-7.777,2.049-11.737,2.4c-33.103,2.939-66.208,6.956-99.314-0.219c-5.745-1.245-11.673-1.641-17.967-2.489
		c-2.562,4.926-5.035,8.832-6.709,13.056c-5.5,13.879-32.85,109.769-34.859,121.955c4.412,0.48,8.762,1.337,13.118,1.367
		c39.33,0.273,78.662,0.372,117.992,0.602c6.583,0.039,13.164,0.464,19.767,0.712c4.205,6.268,2.174,12.186,1.146,17.841
		c-6.435,35.39-12.511,70.856-19.679,106.099c-17.258,84.852-35.073,169.59-52.584,254.39c-1.187,5.747-1.713,11.631-2.755,18.907
		c15.772,2,30.15,4.028,44.577,5.613c38.469,4.227,76.557,10.58,113.928,20.703c10.89,2.95,21.703,6.597,32.006,11.156
		c7.184,3.179,13.772,8.03,20.021,12.909c7.171,5.599,10.656,13.166,10.292,22.693c-0.636,16.647-0.631,33.32-0.909,49.981
		c-0.022,1.332-0.208,2.66-0.235,3.992c-0.472,23.256-11.723,38.491-33.303,47.298c-24.276,9.907-49.489,16.123-75.271,19.282
		c-38.343,4.698-76.872,7.882-115.325,11.682c-5.24,0.518-10.496,0.872-17.196,1.421c0.34,4.526,0.229,8.259,0.946,11.826
		c15.622,77.711,31.357,155.398,47.027,233.099c19.356,95.981,38.628,191.979,58.034,287.95
		c5.808,28.721,11.918,57.381,17.949,86.057c1.408,6.692,2.137,13.21-2.791,19.344c-6.526,3.485-13.96,2.572-21.195,2.493
		c-6.616-0.072-13.226-0.8-21.07-1.321c-1.831-4.934-3.982-9.638-5.344-14.56c-35.902-129.662-71.706-259.352-107.562-389.026
		c-19.525-70.615-39.102-141.216-58.694-211.812c-1.76-6.341-3.812-12.601-6.066-20.009c-104.042-0.191-207.221-0.336-309.804-0.439
		c-6.109,6.726-7.408,14.076-9.318,20.996c-9.036,32.74-17.463,65.652-26.76,98.317c-43.393,152.464-87.001,304.868-130.534,457.292
		c-3.658,12.808-7.162,25.664-11.058,38.398c-2.115,6.913-4.905,13.619-7.41,20.47c-14.864,4.299-28.448,3.294-41.333-0.763
		c-5.097-4.75-5.226-9.949-4.245-15.355c3.329-18.347,6.315-36.767,10.148-55.009c15.614-74.309,31.304-148.602,47.321-222.825
		c23.182-107.429,46.677-214.79,70.015-322.185c1.824-8.395,3.463-16.83,5.263-25.615c-7.801-4.281-15.771-4.654-23.572-6.001
		c-31.49-5.44-62.999-10.813-94.354-16.965c-14.367-2.819-28.172-7.847-41.151-15.021c-11.453-6.33-18.458-15.141-18.287-28.628
		c0.27-21.296,0.686-42.589,1.014-63.884c0.124-8.064,3.902-14.189,10.68-18.023c8.667-4.902,17.432-9.831,26.643-13.533
		c25.467-10.235,52.245-15.764,79.19-20.372c68.439-11.704,137.507-17.036,206.793-20.106c5.819-0.258,11.616-1.015,18.79-1.665
		c-0.796-7.26-0.971-13.165-2.138-18.867c-24.169-118.114-48.434-236.208-72.753-354.291c-1.469-7.131-3.268-14.161-2.6-21.014
		c6.008-4.685,12.203-3.154,17.983-3.194c46.663-0.318,93.328-0.421,139.991-0.645c6.593-0.031,13.185-0.359,21.554-0.602
		c-2.171-6.937-3.419-12.705-5.737-18.005c-8.005-18.303-15.28-37.046-24.833-54.529c-25.233-46.181-51.418-91.846-77.494-137.561
		c-3.524-6.177-6.509-13.169-13.842-17.242c-2.675,1.83-5.619,3.426-8.068,5.584c-25.678,22.623-56.476,31.825-89.797,34.483
		c-65.999,5.266-97.729,3.298-168.508-9.739c-27.511-5.067-55.181-9.273-82.702-14.294c-10.385-1.895-20.898-3.93-30.336-9.257
		c9.547-19.338,39.435-52.766,59.877-67.001c8.424,6.023,16.766,12.577,25.691,18.204c8.898,5.61,18.382,10.292,30.228,16.826
		c-31.093,11.038-61.851,14.131-92.99,29.591c10.795,1.776,16.748-0.582,22.704-2.483c17.124-5.467,34.188-11.125,51.362-16.428
		c3.615-1.116,7.599-1.037,12.357-1.625c-2.84,11.504-13.162,18.101-14.567,31.44c6.073-3.664,8.022-8.403,10.982-12.031
		c2.946-3.611,6.322-7.127,8.239-11.272c5.64-12.193,15.8-16.755,28.111-19.615c11.62-2.7,22.782-7.332,34.219-10.877
		c3.629-1.125,7.496-1.486,12.616-2.454c-3.092,12.2-9.343,20.924-13.526,30.529c-4.128,9.479-9.922,18.311-12.796,27.816
		c4.657,3.23,6.468,1.125,7.629-1.217c7.398-14.92,15.047-29.738,21.792-44.953c4.185-9.439,10.533-14.348,20.631-16.556
		c16.4-3.587,32.718-3.97,50.262-3.495c-0.932,15.688-8.262,27.878-11.951,41.071c-3.739,13.372-8.414,26.578-7.775,43.953
		c3.6-4.553,6.267-6.531,6.995-9.067c5.512-19.202,10.587-38.529,15.931-57.78c1.4-5.044,3.267-9.958,5.129-15.559
		c11.941-1.121,22.987,1.866,34.07,3.025c10.563,1.104,20.922,4.02,31.449,5.624c15.242,2.323,29.825,6.253,43.117,16.347
		c2.261-6.534-2.487-9.282-4.524-12.896c-2.288-4.059-5.004-7.875-7.376-11.889c-2.37-4.013-4.547-8.14-6.806-12.218
		c-1.937-3.497-3.884-6.989-5.806-10.494c-2.242-4.089-4.497-8.172-6.682-12.292c-2.11-3.977-4.138-7.998-7.383-14.29
		c4.618,0.972,7.132,1.009,9.171,2.011c12.523,6.157,25.746,11.339,37.214,19.096c20.511,13.875,23.701,27.764,13.821,49.944
		c-1.881,4.222-4.271,8.216-6.673,12.785c2.618,4.763,4.981,9.465,7.706,13.946c10.043,16.511,19.924,33.13,30.382,49.377
		c24.565,38.166,46.187,77.944,65.63,118.913c5.703,12.018,10.347,24.534,15.76,36.696c3.195,7.179,5.665,15.106,13.773,18.4
		c5.539-1.521,5.273-5.695,4.98-9.667c-2.693-36.557-4.835-73.168-8.334-109.649c-5.471-57.049-13.259-113.825-22.717-170.356
		c-4.836-28.904-9.881-57.776-15.203-86.594c-1.319-7.145-3.102-14.522-6.366-20.93c-9.961-19.552-20.749-38.683-31.884-59.211
		c-3.907,2.725-7.126,4.611-9.925,6.991c-8.622,7.332-16.562,15.574-25.698,22.172c-36.092,26.067-76.216,34.171-119.484,23.88
		c-24.025-5.714-46.602-15.586-69.652-28.913c3.343-2.392,5.43-4.725,8.012-5.609c52.292-17.897,104.715-35.413,156.902-53.608
		c8.569-2.988,15.161-2.018,22.485,2.57c8.232,5.156,16.138,11.21,25.397,14.021c3.512-4.201,2.557-7.631-0.67-9.187
		c-40.655-19.614-72.591-51.768-109.931-76.119c-10.193-6.647-15.635-15.488-16.581-27.942c-2.424-31.918-8.04-63.397-14.561-94.716
		c-0.388-1.863-0.05-3.877-0.05-5.553c3.969-3.257,6.47-0.269,8.949,1.427c60.241,41.225,103.161,95.806,126.366,165.267
		c5.126,15.344,11.345,29.703,21.782,42.301c7.532,9.092,13.902,19.146,20.779,28.756c4.719-2.597,2.607-6.194,2.201-9.031
		c-7.739-54.073-15.292-108.18-26.551-161.674c-5.623-26.715-11.417-53.394-16.932-80.132c-1.071-5.19-1.975-10.622-1.64-15.858
		c1.181-18.447-3.491-35.641-9.949-52.587c-2.353-6.174-4.311-12.498-6.655-19.358c2.519-3.299,4.602-6.636,7.265-9.419
		c24.45-25.563,47.117-52.571,68.353-80.895c9.901-13.207,22.104-24.688,34.29-38.08c-0.695-1.32-2.089-3.966-3.722-7.067
		c-8.119,1.794-11.701,7.537-15.733,12.597c-14.952,18.764-29.569,37.803-44.828,56.313c-13.138,15.935-26.942,31.323-40.55,46.866
		c-2.084,2.381-4.701,4.295-7.613,6.911c-1.813-2.149-3.441-3.346-4.077-4.94c-11.592-29.07-22.987-58.219-34.62-87.273
		c-2.7-6.743-2.221-12.698,1.448-18.996c22.467-38.568,44.785-77.223,67.051-115.907c5.309-9.224,10.382-18.592,15.238-28.062
		c1.404-2.737,1.674-6.055,3.574-13.397c-5.23,4.946-7.818,6.564-9.267,8.891c-14.783,23.744-29.819,47.349-43.884,71.516
		c-10.044,17.258-18.688,35.33-28.015,53.008c-3.082,5.842-6.347,11.587-10.372,18.913c-2.715-3.593-5.05-5.827-6.365-8.554
		c-14.757-30.604-29.288-61.316-44.045-91.92c-3.882-8.051-6.161-15.786-2.986-24.903c14.453-41.498,28.479-83.145,42.773-124.698
		c1.714-4.983,4.126-9.727,6.701-15.711c3.863,2.582,7.377,4.27,10.066,6.825c58.129,55.246,105.294,118.325,137.366,192.233
		c2.245,5.173,2.719,11.791,10.078,15.833c0-4.137,0.269-7.16-0.04-10.123c-4.644-44.402-9.44-88.788-14.006-133.197
		c-0.953-9.272-1.281-18.62-1.602-27.943c-0.284-8.229-4.03-13.66-11.57-17.016c-7.298-3.248-14.361-7.029-21.484-10.662
		c-54.735-27.92-94.885-70.206-122.627-124.671c-1.187-2.331-1.938-4.894-2.757-7.393c-0.157-0.48,0.316-1.168,0.497-1.766
		c1.128-0.226,2.566-1.011,3.341-0.586c39.788,21.829,81.881,38.693,123.159,57.309c2.429,1.096,4.8,2.348,7.293,3.268
		c8.255,3.046,12.741,8.578,14.046,17.58c1.525,10.523,4.318,20.861,6.523,31.287c2.76,13.047,6,25.867,11.875,38.018
		c8.273,17.107,9.963,35.955,11.871,54.434c4.448,43.073,8.587,86.201,11.537,129.397c2.409,35.278,5.457,70.395,11.686,105.227
		c1.756,9.817,2.139,19.874,3.29,29.805c3.403,29.339-6.898,53.646-27.367,74.093c-15.393,15.376-34.189,25.264-54.386,32.731
		c-8.052,2.977-16.14,5.853-25.22,9.14c0.664,5.69,0.71,10.925,1.938,15.866c18.814,75.731,31.647,152.584,43.545,229.628
		c9.76,63.203,19.97,126.337,29.829,189.525c11.711,75.062,22.225,150.283,28.752,226.003c1.316,15.27,1.873,30.604,3.053,45.888
		c0.3,3.887,1.486,7.742,2.636,11.498c0.255,0.833,2.066,1.605,3.185,1.642c1.109,0.036,2.702-0.594,3.278-1.464
		c1.055-1.595,1.943-3.536,2.148-5.415c0.649-5.959,1.13-11.949,1.358-17.939c1.752-45.961,3.359-91.927,5.143-137.886
		c3.543-91.251,7.178-182.498,10.759-273.747c1.568-39.964,3.149-79.927,4.631-119.895c1.729-46.628,2.794-93.29,5.186-139.883
		c2.323-45.255,5.99-90.441,9.013-135.661c2-29.924,4.078-59.844,5.805-89.785c1.919-33.271,2.585-66.638,5.419-99.825
		c3.515-41.148,7.466-82.334,13.442-123.18c9.16-62.607,20.216-124.936,30.452-187.386c1.821-11.108,6.234-22.637,4.605-33.227
		c-1.638-10.653-9.109-20.488-14.387-30.49c-21.299-40.36-36.128-82.871-44.705-127.762c-9.263-48.482-3.531-95.477,11.465-141.843
		c0.577-1.785,2.148-3.248,4.07-6.048c2.466,3.78,4.953,6.654,6.417,9.979c22.274,50.596,44.413,101.252,66.586,151.893
		c2.938,6.711,5.258,13.792,8.981,20.036c5.283,8.859,4.711,17.293,1.916,26.779c-9.035,30.663-17.391,61.526-26.054,92.3
		c-1.792,6.367-3.872,12.21-0.596,19.255c2.029,4.363,1.302,10.478,0.52,15.609c-11.149,73.097-22.739,146.127-33.673,219.256
		c-2.556,17.096-3.243,34.486-4.482,51.763c-3.242,45.204-6.671,90.399-9.376,135.637c-5.131,85.823-9.872,171.67-14.638,257.515
		c-1.7,30.614-3.004,61.249-4.489,91.874c-3.906,80.557-7.967,161.106-11.65,241.673c-1.735,37.953-2.761,75.939-4.078,113.911
		c-1.432,41.303-3.007,82.602-4.16,123.913c-0.495,17.746-0.083,35.517,1.107,53.262c1.823-23.211,4.358-46.391,5.332-69.638
		c2.653-63.345,10.675-126.099,19.185-188.838c6.269-46.214,12.089-92.492,17.6-138.803c6.38-53.615,14.895-106.875,24.99-159.903
		c11.585-60.854,22.912-121.758,34.67-182.579c2.903-15.019,6.626-29.916,10.775-44.643c2.225-7.899,1.2-13.872-4.379-20.058
		c-41.931-46.488-55.808-101.915-50.199-162.946c1.206-13.118,4.663-26.318,9.05-38.788c6.841-19.446,15.314-38.32,23.236-57.378
		c0.965-2.321,2.803-4.28,5.402-8.136c2.361,4.728,4.292,7.814,5.512,11.16c12.786,35.065,25.866,70.017,44.081,102.726
		c5.987,10.75,5.53,20.903,2.162,32.555c-8.687,30.055-16.125,60.476-23.755,90.827c-2.569,10.218-3.061,20.765-4.409,30.964
		c5.351,1.106,5.857-1.607,6.495-4.09c9.45-36.769,18.885-73.542,28.328-110.313c1.325-5.161,3.095-10.25,3.909-15.49
		c1.336-8.593,6.324-12.438,14.588-13.8c21.027-3.466,41.884-8.134,62.997-10.868c35.68-4.621,71.423-8.63,106.55-16.729
		c1.832-0.423,3.896,0.161,7.44,0.371c-2.507,4.592-4.188,8.654-6.697,12.117c-27.003,37.287-56.021,72.961-86.951,107.049
		c-16.572,18.264-33.655,36.065-50.525,54.058c-1.823,1.944-3.682,3.869-5.664,5.647c-21.068,18.901-18.483,18.748-50.176,15.33
		c-6.495-0.701-12.891-2.326-20.18-3.683c-6.608,20.922-6.794,41.615-10.099,61.721c-3.327,20.243-5.28,40.711-5.855,61.897
		c8.564-14.065,16.879-28.289,25.761-42.151c8.851-13.814,17.784-27.635,29.785-42.6c1.862,7.579,3.428,11.888,3.927,16.317
		c3.203,28.47,6.112,56.972,9.254,85.449c1.022,9.263,2.598,18.465,3.647,27.726c0.753,6.644,0.614,13.073-2.746,19.406
		c-9.985,18.822-19.469,37.909-29.282,56.823c-1.444,2.784-3.614,5.191-5.479,7.816c-17.372-13.896-19.094-17.535-40.789-86.035
		c-1.887,6.681-3.789,11.255-4.425,15.998c-7.183,53.486-14.113,107.006-21.229,160.501
		c-7.291,54.816-14.731,109.612-22.069,164.421c-5.924,44.245-11.784,88.498-17.688,132.745
		c-6.08,45.566-12.169,91.132-18.274,136.695c-1.681,12.547-3.626,25.062-5.058,37.636c-0.575,5.053-0.095,10.227-0.095,16.033
		c10.209,1.93,19.186,2.194,28.757-0.163c0.828-2.989,1.815-5.42,2.153-7.938c5.947-44.27,13.383-88.262,25.521-131.308
		c3.031-10.748,3.372-20.642-1.537-31.019c-9.508-20.096-9.058-41.517-5.796-62.781c2.013-13.118,5.578-26.04,9.071-38.88
		c21.679-79.694,43.856-159.257,62.676-239.698c0.455-1.946,1.24-3.83,1.538-5.794c5.993-39.525,22.335-75.06,41.438-109.681
		c4.436-8.04,10.378-11.411,18.716-12.771c15.764-2.572,31.624-4.798,47.184-8.316c21.408-4.84,42.569-10.771,63.854-16.161
		c2.457-0.622,5.032-0.781,9.495-1.442c-1.44,3.743-1.809,6.21-3.141,7.936c-20.454,26.516-43.371,50.626-70.557,70.362
		c-21.252,15.427-44.167,27.312-70.539,31.414c-3.195,0.497-6.231,2.018-9.688,3.182c-9.375,36.88-18.686,73.509-28.006,110.173
		c4.743,2.564,6.096-1.405,7.721-3.682c9.677-13.561,18.953-27.41,28.743-40.887c7.827-10.774,16.086-21.242,24.4-31.648
		c1.929-2.415,4.862-4.028,8.841-7.219c8.606,42.951,24.078,81.889,39.381,121.377c-11.211,13.58-21.953,26.231-32.243,39.24
		c-3.987,5.04-10.256,8.804-10.437,16.334c-7.697,5.73-7.697,5.73-9.674,13.372c4.524-3.787,9.231-7.182,9.269-13.755
		c6.247-0.302,8.468-5.838,11.902-9.535c11.706-12.604,23.093-25.503,35.072-38.812c22.208,5.734,43.891,11.332,67.361,17.391
		c-2.896,3.196-4.595,5.723-6.88,7.495c-33.268,25.799-69.071,47.046-109.175,60.554c-12.893,4.343-23.99,10.985-30.382,25.906
		c19.95-2.377,37.74-10.292,57.599-10.086c-0.637,4.479-1.159,8.141-1.68,11.804c0,0,0.757-0.828,0.757-0.828
		c-7.569,3.058-11.6,8.784-12.643,16.763l0.633-0.768c-7.506,3.099-11.635,8.745-12.632,16.752L963.33,3115.645z M913.404,3086.225
		c1.203,0.157,2.405,0.315,3.608,0.473c-0.138-0.834-0.275-1.668-0.413-2.502c-0.927,0.835-1.855,1.67-2.657,2.636
		c-3.145,4.045-2.772,8.048,0.146,12.02c-1.956-0.37-3.912-0.739-6.366-1.203c-17.343,24.795-34.815,49.74-52.153,74.777
		c-0.38,0.549,0.757,2.15,1.375,3.749c7.852-4.309,13.285-11.095,17.978-18.109c9.944-14.861,19.033-30.291,28.686-45.351
		c3.099-4.835,3.921-11.453,10.202-13.919C913.674,3094.606,913.539,3090.416,913.404,3086.225z M248.954,3847.094
		c17.074,4.92,31.01,9.338,45.155,12.936c44.745,11.381,90.531,16.015,136.391,19.277c67.147,4.777,134.345,8.549,201.699,9.783
		c119.422,2.187,238.637-0.244,357.422-13.54c25.769-2.885,51.436-7.445,76.807-12.844c16.185-3.445,31.826-9.609,47.518-15.101
		c4.026-1.409,7.326-4.893,12.087-8.208c-3.51-3.229-5.474-6.167-8.198-7.341c-10.351-4.463-20.688-9.29-31.498-12.303
		c-50.258-14.006-101.758-20.752-153.637-24.947c-2.456-0.198-5.001,0.695-7.393,1.062c-6.297,21.62-4.739,44.345-15.391,64.016
		c-3.449,0.34-6.073,0.822-8.699,0.826c-98.662,0.161-197.325,0.307-295.987,0.305c-4.449,0-8.898-1.398-12.93-2.075
		c-8.445-22.011-9.532-45.135-19.577-66.711c-7.743,0.361-14.981,0.526-22.189,1.082c-7.306,0.564-14.577,1.564-21.871,2.291
		c-55.026,5.487-110.108,10.465-165.06,16.611c-32.505,3.635-64.299,11.175-94.93,23.027
		C262.599,3837.59,256.108,3839.217,248.954,3847.094z M1008.024,4593.362c-0.982-9.09-1.137-14.361-2.162-19.456
		c-19.038-94.567-38.307-189.088-57.264-283.671c-19.348-96.538-38.415-193.132-57.59-289.706
		c-1.41-7.103-2.446-14.334-8.324-20.779c-15.569,0.777-31.422-0.91-47.545,2.584c-1.806,7.27,0.928,13.418,2.683,19.734
		c42.379,152.551,84.728,305.11,127.068,457.672c10.318,37.178,20.452,74.409,31.003,111.52
		C997.79,4577.933,998.073,4585.749,1008.024,4593.362z M295.855,4591.665c7.999-7.296,9.443-14.464,11.401-21.37
		c12.534-44.202,24.993-88.425,37.623-132.6c42.467-148.533,84.996-297.048,127.499-445.57c1.059-3.698,3.318-7.325,0.081-12.342
		c-15.187-3.343-31.123-6.148-48.099-3.034c-43.386,202.889-86.55,404.712-129.622,606.553
		C294.359,4585.081,295.205,4587.122,295.855,4591.665z M847.126,3122.379c9.373-2.813,14.609-8.983,20.902-13.424
		c5.988-4.225,11.813-8.686,17.645-13.127c6.361-4.844,12.616-9.828,18.979-14.669c6.012-4.573,9.771-12.02,16.851-14.86
		c1.887,2.38,2.971,3.747,4.145,5.227c15.69-19.759,16.923-21.785,15.337-25.181c-2.817,1.359-5.637,2.72-9.439,4.555
		c-5.391-9.92-10.9-19.655-16.02-29.591c-5.182-10.057-9.923-20.341-14.961-30.474c-4.813-9.68-3.816-21.707-11.446-30.985
		c-6.878,27.6-13.324,54.101-20.109,80.516C862.091,3067.301,852.561,3093.569,847.126,3122.379z M829.331,3371.542
		c10.918-18.459,13.467-34.995,18.677-50.524c5.48-16.337,10.6-32.805,15.415-49.351c4.58-15.738,11.651-30.845,13.322-47.663
		c-6.222-5.188-9.766-13.134-18.799-13.277c-12.406,22.403-24.654,74.313-30.421,129.653
		C826.612,3349.141,824.412,3358.23,829.331,3371.542z"/>
	<path d="M1201.9,2206.025c-9.066,14.666-17.947,29.45-27.238,43.972c-15.76,24.634-31.911,49.019-47.623,73.683
		c-6.464,10.147-14.636,15.362-27.138,17.225c-53.876,8.029-107.559,17.353-161.329,26.096c-4.479,0.728-9.091,0.638-13.237,0.902
		c-0.725-1.407-1.085-1.899-1.235-2.449c-0.172-0.631-0.429-1.442-0.185-1.954c19.942-41.985,39.93-83.948,60.279-126.678
		c7.884-1.64,15.554-3.755,23.366-4.777c50.065-6.546,100.182-12.704,150.233-19.353c11.138-1.48,22.144-4.16,33.086-6.804
		c4.017-0.971,7.651-2.02,11.409,0.305L1201.9,2206.025z"/>
	<path d="M1069.29,1639.749c3.296,8.812,3.177,16.769,3.296,24.653c0.539,35.983-1.736,71.798-6.081,107.521
		c-1.126,9.258-4.821,15.732-12.712,21.123c-40.647,27.774-80.854,56.193-121.454,84.036c-10.946,7.506-22.667,13.899-34.164,20.578
		c-4.527,2.63-9.367,4.896-15.106,3.189c-3.432-6.28-0.272-12.019,1.049-17.495c6.55-27.142,13.597-54.163,20.359-81.254
		c2.415-9.673,4.639-19.399,6.73-29.148c1.604-7.48,5.422-13.035,11.487-17.94c42.93-34.722,85.568-69.805,128.407-104.641
		C1056.078,1646.322,1060.126,1640.52,1069.29,1639.749z"/>
	<path d="M1202.287,2206.192c-3.727-4.22-8.312-6.679-14.035-6.31c-7.301,0.47-14.633,0.827-21.874,1.809
		c-33.645,4.565-67.25,9.431-100.897,13.981c-18.477,2.499-36.999,4.685-55.526,6.784c-4.383,0.497-8.871,0.074-14.776,0.074
		c1.842-3.93,2.908-7.002,4.598-9.681c12.081-19.158,24.395-38.17,36.427-57.359c11.434-18.235,27.01-30.015,47.882-36.756
		c59.549-19.233,118.675-39.776,177.979-59.769c3.73-1.258,7.561-2.217,10.868-3.177c4.538,3.018,2.602,6.376,1.472,9.166
		c-13.508,33.338-27.552,66.445-44.826,98.055c-7.349,13.449-14.944,26.768-26.313,37.461c-1.181,1.111-1.104,3.561-1.488,5.471
		C1201.9,2206.025,1202.287,2206.192,1202.287,2206.192z"/>
	<path d="M1067.252,1626.676c-22.502,21.643-126.768,104.958-144.233,115.249c-0.362-1.957-1.311-3.863-0.919-5.435
		c27.725-111.007,55.551-221.989,83.479-332.945c0.238-0.944,1.961-1.515,2.991-2.259
		C1031.411,1436.05,1066.808,1571.29,1067.252,1626.676z"/>
	<path d="M1302.549,1836.477c-11.486,6.126-19.007,16.411-27.021,26.095c-8.911,10.768-17.479,21.822-26.123,32.809
		c-60.161,76.464-127.083,147.08-190.702,220.553c-1.712,1.977-3.033,4.292-5.131,7.302c-3.298-9.995-3.409-10.017-2.205-16.13
		c5.656-28.721,11.373-57.43,17.079-86.141c4.928-24.795,10.047-49.553,14.684-74.402c1.165-6.245,3.457-11.096,8.503-15.087
		c53.222-42.089,110.331-76.746,177.122-92.895c9.036-2.185,18.262-3.597,27.427-5.22c2.802-0.496,5.191,0.272,5.708,3.651
		L1302.549,1836.477z"/>
	<path d="M667.646,2124.943c-1.986-5.463-3.877-9.432-4.876-13.614c-6.169-25.84-11.749-51.827-18.355-77.552
		c-2.817-10.972-2.141-20.549,3.228-30.638c16.86-31.686,33.191-63.653,49.607-95.573c11.836-23.015,23.479-46.13,35.964-70.686
		c2.257,3.114,4.556,5.207,5.535,7.799c17.616,46.646,33.979,93.689,46.399,142.058c2.575,10.027,1.847,17.998-5.239,25.677
		c-16.222,17.58-31.651,35.921-48.366,53.008c-17.196,17.579-35.511,34.066-53.407,50.957
		C675.313,2119.044,672.118,2121.314,667.646,2124.943z"/>
	<path d="M1058.56,1799.922c0,6.004,0.561,9.94-0.085,13.666c-8.661,49.953-26.28,96.238-57.044,136.974
		c-14.979,19.834-32.82,36.685-53.659,50.358c-29.449,19.322-61.766,23.28-95.805,18.251c-1.205-0.178-2.268-1.315-4.718-2.811
		c0.362-4.454-0.07-9.841,1.339-14.694c7.606-26.198,15.657-52.266,23.583-78.37c1.682-5.539,5.613-8.825,10.927-10.776
		c32.265-11.846,60.048-31.588,88.001-50.818c24.687-16.983,48.513-35.217,72.805-52.779
		C1048.025,1805.943,1052.582,1803.566,1058.56,1799.922z"/>
	<path d="M303.171,2275.762c4.595,0.958,6.608,1.098,8.405,1.795c22.938,8.903,45.839,17.903,68.763,26.843
		c26.654,10.395,53.298,20.816,80,31.086c6.376,2.453,11.804,5.324,14.917,12.132c16.327,35.712,32.984,71.272,49.464,106.914
		c0.523,1.131,0.358,2.58,0.644,4.974c-3.868,0-7.785,0.742-11.316-0.112c-52.406-12.676-104.272-27.251-155.455-44.265
		c-11.573-3.847-18.89-10.656-23.613-22.12c-12.744-30.932-21.307-62.989-28.015-95.63
		C305.649,2290.978,304.693,2284.502,303.171,2275.762z"/>
	<path d="M847.354,1556.994c1.026,0.915,2.415,1.556,2.783,2.569c15.451,42.461,30.939,84.91,46.109,127.472
		c4.905,13.761,9.2,27.755,13.29,41.784c2.628,9.013,3.331,18.277,0.729,27.574c-10.205,36.46-20.331,72.942-30.525,109.404
		c-0.703,2.513-1.73,4.935-2.617,7.43c-7.676-0.398-7.788-6.951-9.695-11.286c-20.344-46.235-40.413-92.591-60.569-138.909
		c-5.039-11.579-10.102-23.149-15.184-34.709c-2.48-5.641-3.546-11.299-1.475-17.399c1.704-5.021,2.57-10.338,4.408-15.301
		c11.572-31.251,25.877-61.205,43.421-89.557C840.31,1562.379,841.605,1557.208,847.354,1556.994z"/>
	<path d="M324.436,2061.213c49.661,6.99,150.12,66.653,200.32,118.576c-2.732,16.49-10.28,32.099-15.548,48.37
		c-5.117,15.803-10.793,31.435-16.591,47.004c-5.963,16.01-9.853,32.888-18.957,48.347c-1.877-2.259-3.421-3.61-4.341-5.3
		c-24.162-44.382-48.549-88.646-72.282-133.257c-21.254-39.953-42.793-79.694-68.972-116.72
		C326.936,2066.635,326.236,2064.734,324.436,2061.213z"/>
	<path d="M998.639,1399.294c-0.259,5.42,0.106,7.503-0.51,9.239c-13.594,38.318-21.016,78.245-30.907,117.533
		c-15.086,59.921-30.661,119.719-46.086,179.554c-0.652,2.53-1.888,4.909-3.656,9.401c-2.766-5.062-5.22-8.5-6.645-12.321
		c-17.644-47.323-34.711-94.867-52.964-141.953c-4.716-12.165-3.444-21.399,4.264-31.276c20.487-26.25,42.186-51.387,65.878-74.802
		c16.593-16.398,34.176-31.611,53.363-44.9C986.209,1406.423,991.432,1403.64,998.639,1399.294z"/>
	<path d="M461.01,2323.945c-3.806-0.623-7.064-0.629-9.919-1.703c-46.073-17.325-92.011-35.015-138.203-52.016
		c-8.905-3.278-13.131-8.677-13.568-17.437c-0.894-17.942-2.108-35.907-1.982-53.854c0.291-41.425,7.027-82.145,14.996-122.668
		c0.717-3.647,2.371-7.11,4.29-12.696c3.064,4.23,5.142,6.663,6.745,9.377C367.875,2148.277,454.16,2305.397,461.01,2323.945z"/>
	<path d="M1262.59,2407.258c-3.188,24.66-25.607,76.193-44.449,103.709c-15.976,2.308-53.032-2.037-81.027-9.688
		c4.547-8.105,12.63-11.679,19.07-16.883c6.729-5.437,13.777-10.48,20.696-15.682c6.387-4.802,12.743-9.645,19.193-14.36
		c6.985-5.107,14.064-10.087,21.1-15.124c6.981-4.998,13.961-9.997,19.874-17.434c-2.56,0.61-5.347,0.762-7.645,1.901
		c-22.837,11.317-42.665,27.073-62.477,42.818c-8.338,6.627-16.418,13.579-24.74,20.227c-1.849,1.477-4.225,2.294-8.103,4.333
		c2.165-20.964,11.37-38.566,10.278-58.339c-2.12,4.575-4.81,8.978-6.255,13.757c-4.999,16.536-9.996,33.097-14.119,49.863
		c-2.172,8.834-6.397,15.66-12.848,21.896c-22.485,21.736-44.651,43.802-66.896,65.784c-2.258,2.231-4.304,4.639-7.51,6.096
		c-3.37-16.174-1.769-81.944,2.731-118.912c3.801-2.39,8.093-5.411,12.669-7.913c28.078-15.353,56.697-29.468,87.923-37.439
		c1.931-0.493,4.025-0.632,5.785-1.474c27.678-13.253,57.316-16.457,87.438-17.106
		C1242.507,2407.089,1251.745,2407.258,1262.59,2407.258z"/>
	<path d="M207.475,2621.433c7.339-1.24,13.105-3.017,18.886-3.063c42.763-0.342,85.096,3.673,126.766,13.625
		c1.223,0.292,2.298,1.2,4.612,2.454c5.285,29.863,8.519,60.786,12.21,93.981c-5.554-2.938-9.676-4.548-13.157-7.05
		c-30.819-22.146-61.374-44.661-92.334-66.606c-13.019-9.228-26.794-17.394-40.299-25.925c-2.585-1.633-5.521-2.709-10.008-2.107
		c1.311,1.847,2.301,4.084,3.989,5.474c7.179,5.917,14.295,11.97,21.92,17.276c38.803,27.002,77.773,53.763,116.639,80.675
		c5.299,3.669,10.343,7.709,16.053,11.989c-13.751,6.901-95.831,29.275-121.171,33.222c-1.837-2.766-4.612-5.704-5.978-9.194
		c-17.024-43.495-29.819-88.212-38.068-134.2C207.081,2629.465,207.475,2626.794,207.475,2621.433z"/>
	<path d="M631.767,2018.722c-10.16-4.227-17.639-9.751-25.013-15.19c-45.492-33.553-90.806-67.349-136.265-100.946
		c-5.555-4.106-10.005-8.458-10.858-15.81c-3.688-31.79-5.599-63.599-1.816-95.519c0.148-1.246,0.975-2.411,2.042-4.924
		c2.7,1.348,5.597,2.298,7.915,4.026c25.592,19.068,51.141,38.196,76.604,57.436c14.856,11.225,29.486,22.748,44.321,34.001
		c6.461,4.901,12.24,10.052,14.392,18.41c9.613,37.325,19.405,74.604,29.066,111.917
		C632.459,2013.293,632.037,2014.652,631.767,2018.722z"/>
	<path d="M730.274,1825.324c-28.508,57.392-60.664,114.04-89.634,171.554c-5.033,0.796-5.135-2.277-5.773-4.637
		c-9.211-34.059-18.399-68.125-27.541-102.203c-0.862-3.212-1.185-6.572-2.099-9.766c-2.687-9.399-1.933-18.35,2.461-27.154
		c3.268-6.549,5.944-13.39,9.027-20.034c13.458-28.994,26.942-57.976,40.487-86.929c2.232-4.771,4.819-9.376,7.261-14.095
		C684.237,1744.254,713.484,1785.635,730.274,1825.324z"/>
	<path d="M566.274,2568.531c-4.036,0-7.936,0.283-11.784-0.044c-39.176-3.325-78.063-8.686-116.561-16.749
		c-7.296-1.528-13.73-3.96-18.617-10.363c-26.362-34.543-49.626-70.908-66.665-111.022c-0.997-2.348-1.324-4.981-1.888-7.189
		c0.948-0.926,1.358-1.514,1.921-1.82c0.499-0.271,1.247-0.46,1.751-0.29c17.633,5.966,35.082,12.54,52.907,17.857
		c28.693,8.559,57.58,16.489,86.494,24.277c11.523,3.104,23.339,5.122,34.388,7.498
		C539.248,2489.565,564.462,2554.092,566.274,2568.531z"/>
	<path d="M979.995,2227.478c-4.126-9.855-7.014-15.747-9.101-21.909c-10.25-30.272-20.215-60.64-30.453-90.916
		c-2.472-7.308-2.935-13.718,1.772-20.744c34.264-51.141,72-99.233,119.781-138.657c3.378-2.787,7.411-4.78,13.221-8.461
		c-0.742,5.612-0.705,8.891-1.64,11.864c-14.417,45.844-24.125,92.762-31.972,140.094c-1.52,9.172-1.892,18.529-3.2,27.742
		c-0.736,5.186-1.229,10.844-3.67,15.278C1019.014,2170.32,1000.734,2197.239,979.995,2227.478z"/>
	<path d="M463.702,1908.598c4.723,2.256,6.65,2.812,8.142,3.942c33.457,25.342,66.629,51.068,100.38,76.01
		c17.652,13.045,36.117,25.027,54.607,36.878c6.549,4.198,10.912,8.558,12.675,16.595c5.277,24.057,11.495,47.908,17.26,71.859
		c0.577,2.397,0.572,4.935,1.028,9.186c-5.814-2.144-10.091-3.398-14.093-5.248c-41.111-18.997-82.095-38.272-123.322-57.013
		c-8.985-4.085-15.584-9.264-19.213-18.781C485.02,1999.682,472.105,1956.483,463.702,1908.598z"/>
	<path d="M1079.035,2109.243c6.052-8.635,9.405-14.32,13.62-19.271c15.077-17.709,30.338-35.265,45.74-52.692
		c12.326-13.946,25.054-27.535,37.422-41.445c8.982-10.101,19.39-17.933,31.94-23.228c28.147-11.877,56.097-24.219,84.183-36.242
		c3.977-1.703,8.264-2.683,14.698-4.724c-7.627,39.166-16.133,75.766-24.762,112.286c-4.489,1.841-8.018,3.729-11.782,4.767
		c-53.845,14.86-105.954,34.919-158.75,52.915C1102.088,2104.766,1093.159,2109.234,1079.035,2109.243z"/>
	<path d="M312.508,2868.481c55.688-18.798,111.6-37.671,167.016-56.376c14.723,7.087,65.328,42.905,79.155,56.151
		c-3.079,1.658-5.614,3.459-8.433,4.475c-52.447,18.902-104.983,37.562-157.338,56.714c-7.026,2.571-12.685,2.236-18.706-1.644
		c-23.626-15.222-44.221-33.729-61.226-56.153C312.625,2871.187,312.763,2870.356,312.508,2868.481z"/>
	<path d="M929.76,2112.182c2.61,5.088,4.074,7.274,4.912,9.678c11.826,33.923,23.44,67.92,35.422,101.788
		c2.835,8.013,2.786,15.089-1.214,22.831c-7.939,15.365-15.301,31.041-22.494,46.775c-7.463,16.323-14.457,32.862-21.63,49.317
		c-3.16,7.25-5.125,15.176-12.533,21.451c-2.137-2.394-4.923-4.311-6.031-6.936c-15.519-36.783-30.774-73.677-46.186-110.506
		c-2.755-6.583-2.588-12.916,0.46-19.271c0.288-0.6,0.552-1.214,0.869-1.799C881.912,2187.496,903.31,2149.985,929.76,2112.182z"/>
	<path d="M519.623,1624.386c1.551,4.069,3.063,7.522,4.199,11.095c34.341,107.948,68.23,224.022,69.741,238.734
		c-1.227-0.219-2.758-0.043-3.638-0.716c-42.735-32.736-85.414-65.545-128.022-98.286
		C462.408,1732.49,494.13,1648.623,519.623,1624.386z"/>
	<path d="M383.842,2749.195c29.416,15.449,75.068,45.594,83.976,55.452c-15.04,8.429-140.364,53.623-162.233,58.504
		c-18.704-16.839-41.163-52.857-49.918-80.056C269.779,2775.936,333.835,2758.995,383.842,2749.195z"/>
	<path d="M1092.415,3161.429c-4.376-2.49-7.586,0.609-10.9,2.479c-5.464,3.083-11.432,4.46-17.296,3.021
		c-17.031-4.178-34.35-2.706-51.553-3.519c-3.172-0.15-6.331-0.574-9.318-0.855c-0.234-2.135-0.961-3.981-0.418-4.5
		c21.045-20.131,42.206-40.141,63.891-60.678c27.533,11.144,51.132,26.892,73.774,44.061c20.032,15.189,38.839,31.801,54.689,53.159
		c-4.459,1.895-7.294,3.621-10.363,4.321c-23.285,5.318-46.631,10.367-69.918,15.675c-4.445,1.013-8.841,2.503-13.042,4.288
		c-19.175,8.148-39.508,10.291-58.572,13.104c-5.464-5.248-9.611-9.231-13.786-13.24c-0.029-0.025,0.632,0.56,0.596,0.525
		c-0.751-3.089-0.85-6.477-2.292-9.138c-5.063-9.34-10.686-18.376-15.885-27.645c-1.846-3.291-3.089-6.921-5.078-11.475
		c7.831-4.047,15.15-2.811,22.169-2.88c22.009-0.217,41.813,4.985,56.532,22.984c3.6,4.402,8.071,8.093,13.013,11.349
		c-4.244-10.177-14.647-16.006-19.092-26.277c2.341-0.774,3.627-1.688,4.697-1.482c25.366,4.898,50.708,9.917,76.074,14.902
		c1.07-0.106,2.122-0.201,2.29-0.216c-0.215,0-1.323,0-2.431,0c-1.891-1.596-3.556-4.12-5.707-4.643
		c-18.509-4.503-37.122-8.579-55.665-12.947c-3.682-0.867-7.2-2.436-12.629-4.318c2.568-2.972,4.123-4.772,5.636-6.61
		c17.42-11.012,17.42-11.012,20.348-21.204c-9.18,4.297-15.831,10.35-20.792,18.294
		C1090.964,3158.643,1092.037,3160.253,1092.415,3161.429z"/>
	<path d="M1059.201,2760.194c2.255-9.934,11.231-12.356,18.672-15.961c26.399-12.786,54.03-22.093,82.977-27.083
		c10.314-1.778,20.794-2.951,32.694-1.647c-0.584,4.206-0.785,7.294-1.464,10.274c-4.572,20.034-9.262,40.042-13.878,60.066
		c-2.141,9.288-5.996,17.444-13.746,23.56c-2.477,1.955-4.012,5.103-5.978,7.705c-1.913,2.239-3.826,4.478-5.739,6.717
		c-6.188,0.736-10.781,4.312-15.057,8.454c-2.723,3.431-5.447,6.862-8.17,10.294c-7.016,0.863-11.7,5.662-16.74,9.882
		c-10.071,8.433-20.167,16.838-31.5,26.296c-2.473-4.269-4.582-7.239-5.989-10.51c-1.725-4.013,0.338-9.488-4.726-12.256
		c0.001,0,0.543,0.531,0.543,0.531c-1.211-25.077-2.329-50.16-3.687-75.229c-0.436-8.046-2.428-15.688-8.587-21.56
		L1059.201,2760.194z"/>
	<path d="M1030.636,2480.284c0,7.189,0.194,12.496-0.032,17.785c-1.226,28.624-2.674,57.24-3.794,85.868
		c-0.484,12.382-4.092,23.52-11.382,33.51c-2.749,3.766-5.376,7.621-8.128,11.384c-14.543,19.884-29.045,39.799-43.709,59.594
		c-3.761,5.077-6.459,11.473-14.488,14.106c-3.679-8.857-3.286-17.569-4.223-25.823c-3.528-31.103-5.968-62.334-9.803-93.396
		c-1.605-13.001,1.917-23.3,9.878-33.12c22.065-27.215,48.987-48.833,77.773-68.345
		C1024.145,2480.886,1026.347,2481.083,1030.636,2480.284z"/>
	<path d="M598.867,1846.503c-23.293-73.227-46.586-146.453-70.068-220.276c1.168-0.152,3.257-1.127,4.553-0.49
		c42.693,20.977,82.106,46.628,114.822,81.632c4.05,4.333,7.5,9.226,11.456,14.143c-9.798,21.377-19.461,42.352-29.032,63.37
		c-9.339,20.51-18.584,41.064-27.871,61.598C601.44,1846.487,600.153,1846.495,598.867,1846.503z"/>
	<path d="M1056.187,2907.951c-15.3,13.449-27.102,30.511-44.466,44.174c-3.184-5.445-6.626-9.593-8.233-14.358
		c-11.001-32.624-21.629-65.374-32.307-98.106c-0.389-1.192-0.049-2.622-0.049-6.058c21.161-24.309,44.094-48.941,71.619-68.902
		c4.78-3.466,9.863-7.059,16.449-4.505c0,0-0.373-0.467-0.373-0.467c1.874,21.462,3.342,42.97,5.793,64.366
		c1.25,10.912,4.264,21.621,6.481,32.422c0,0-0.543-0.531-0.543-0.531c1.058,9.826,2.117,19.652,3.315,30.772
		c-5.737,6.835-12.063,14.374-18.389,21.918C1055.484,2908.681,1056.187,2907.951,1056.187,2907.951z"/>
	<path d="M1370.065,2750.305c-3.239,3.426-6.222,6.931-9.563,10.053c-15.066,14.081-30.247,28.039-45.356,42.073
		c-3.949,3.668-7.829,7.156-13.902,6.321c-27.492-3.781-54.927-7.861-84.204-13.575c8.355-7.561,16.93-9.277,24.979-11.777
		c27.293-8.477,54.7-16.588,82.014-25c7.198-2.217,14.216-5.018,20.993-8.607c-27.991,2.471-54.803,9.918-81.188,18.706
		c-26.343,8.774-52.306,18.688-78.33,28.064c-1.024-2.278-2.193-3.582-1.986-4.608c5.114-25.339,10.374-50.648,15.492-75.406
		C1238.242,2708.518,1336.438,2728.043,1370.065,2750.305z"/>
	<path d="M1024.153,2622.514c2.546-4.651,3.883-8.315,6.222-11.153c9.741-11.818,19.25-23.899,29.835-34.933
		c18.443-19.225,37.825-37.545,56.374-56.672c6.65-6.857,13.847-9.688,23.179-8.428c23.07,3.114,46.172,5.994,70.724,9.157
		c-1.161,3.903-1.431,7.101-2.942,9.525c-12.331,19.786-24.959,39.385-37.352,59.132c-4.885,7.784-11.466,12.517-20.648,14.188
		c-33.394,6.08-66.731,12.467-100.106,18.651C1041.72,2623.413,1033.939,2624.294,1024.153,2622.514z"/>
	<path d="M669.602,2135.625c41.324-39.775,83.356-75.787,116.473-119.556c5.966,1.086,4.944,4.93,5.148,7.927
		c4.136,61.038-18.785,111.865-59.507,155.662c-9.484,10.2-20.24,19.257-30.785,28.409c-3.291,2.856-7.811,4.294-13.128,7.099
		C679.176,2188.563,675.124,2162.428,669.602,2135.625z"/>
	<path d="M1147.256,2613.453c-1.283,2.977-2.041,6.221-3.849,8.698c-15.275,20.934-30.765,41.71-46.137,62.573
		c-5.484,7.443-13.358,10.696-21.911,12.728c-25.835,6.138-51.657,12.336-77.548,18.227c-11.65,2.65-23.43,4.768-35.206,6.803
		c-2.953,0.51-6.122-0.234-9.925-0.442c0.62-3.076,0.469-5.246,1.431-6.659c16.069-23.624,32.257-47.167,48.484-70.683
		c1.88-2.725,4.128-5.2,6.252-7.752c3.128-3.761,6.973-6.086,12.058-5.803c37.191,2.073,72.071-10.57,107.936-16.942
		c4.565-0.811,9.129-1.663,13.726-2.228C1143.737,2611.83,1145.035,2612.715,1147.256,2613.453z"/>
	<path d="M1152.739,2823.824c1.913-2.239,3.826-4.478,5.738-6.717c2.942-1.505,6.132-2.666,8.785-4.574
		c13.13-9.445,27.271-12.253,43.348-9.369c27.399,4.916,54.993,8.739,84.43,13.321c-2.653,3.746-3.946,6.695-6.162,8.528
		c-21.495,17.771-43.2,35.286-64.724,53.022c-9.59,7.902-19.834,11.981-32.813,11.377c-29.178-1.357-58.42-1.323-87.635-1.907
		c-4.598-0.092-9.191-0.457-13.35-0.673c-3.289-4.068-1.044-6.653,1.437-8.89c6.409-5.777,13.121-11.223,19.418-17.116
		c6.28-5.877,12.202-12.137,18.292-18.241c2.734-3.443,5.458-6.874,8.181-10.305
		C1142.701,2829.46,1147.72,2826.642,1152.739,2823.824z"/>
	<path d="M469.763,2792.752c-5.246-2.815-9.341-4.681-13.095-7.081c-23.525-15.042-46.911-30.301-70.504-45.234
		c-4.315-2.731-6.795-6.112-7.711-10.951c-1.853-9.793-4.366-19.508-5.497-29.382c-2.119-18.5-3.493-37.086-5.039-55.648
		c-0.156-1.88,0.633-3.838,1.181-6.843c3.984,0.711,7.79,1.04,11.386,2.089c22.459,6.55,43.633,16.091,63.958,27.633
		c5.561,3.158,9.073,7.141,10.07,13.79c5.126,34.202,10.583,68.355,15.802,102.543
		C470.677,2786.042,470.049,2788.565,469.763,2792.752z"/>
	<path d="M1056.187,2907.951c0,0-0.703,0.73-0.704,0.724c6.146,1.002,9.904-2.97,13.728-6.683c4.458-4.329,9.332-6.999,15.932-6.89
		c35.968,0.595,71.941,0.904,107.911,1.358c0.512,0.007,1.017,0.619,1.526,0.948c0.238,0.623,0.676,1.252,0.655,1.866
		c-0.02,0.593-0.36,1.36-0.819,1.729c-34.226,27.546-68.479,55.061-103.065,82.848c-25.665-6.732-50.674-12.239-76.586-21.318
		c10.954-14.887,22.499-26.814,33.477-39.198C1052.214,2918.855,1056.851,2914.792,1056.187,2907.951z"/>
	<path d="M573.368,2580.988c6.906,22.076,13.845,43.388,18.978,66.144c-3.856,0.621-6.408,1.538-8.877,1.351
		c-25.478-1.93-49.808-7.891-72.017-21.061c-24.195-14.347-45.266-32.578-64.894-52.541c-3.025-3.076-5.046-7.14-8.017-11.452
		C453.116,2562.25,548.579,2574.782,573.368,2580.988z"/>
	<path d="M391.759,3029.413c6.086-5.42,12.284-4.779,18.148-4.714c25.397,0.28,50.136,4.946,74.517,11.761
		c8.691,2.429,15.494,7.338,19.947,15.351c8.982,16.166,18.027,32.296,28.035,50.21c-4.36,0.499-6.672,1.27-8.806,0.929
		c-21.609-3.45-43.133-7.491-64.802-10.492c-11.128-1.541-19.631-5.373-26.741-14.752
		C419.677,3061.374,405.849,3046.139,391.759,3029.413z"/>
	<path d="M986.57,3084.5c4.459-3.736,8.919-7.473,14.001-11.731c19.308,2.659,37.993,8.696,55.239,17.475
		c1.741,5.073-1.587,6.881-3.832,9.026c-11.536,11.02-23.375,21.73-34.708,32.953c-9.884,9.788-19.237,20.114-29.38,30.788
		c-16.953,3.224-34.79,2.145-54.575,1.921c1.751-4.368,2.372-7.445,4.03-9.789c6.907-9.766,14.285-19.202,21.14-29.003
		c2.174-3.108,3.261-6.976,4.845-10.496c0,0-0.644,0.775-0.644,0.775c7.326-3.235,10.982-9.238,12.632-16.752
		c0,0-0.633,0.768-0.633,0.768c7.154-3.371,10.833-9.362,12.643-16.763L986.57,3084.5z"/>
	<path d="M290.034,3043.328c13.978-8.559,29.912-11.21,45.558-13.959c13.059-2.295,26.495-2.553,39.786-3.335
		c3.176-0.187,6.44,1.134,10.711,1.965c8.512,22.687,29.489,36.532,42.153,55.639c-1.633,5.893-5.518,4.693-8.506,5.11
		c-14.479,2.026-29.025,3.628-43.439,6.026c-7.044,1.172-13.149,0.434-18.778-3.989c-12.568-9.877-24.997-19.944-37.811-29.491
		c-9.504-7.081-18.278-15.516-30.294-18.559L290.034,3043.328z"/>
	<path d="M1301.89,1837.014c1.938-0.101,3.876-0.202,5.757-0.301c3.579,14.599,3.337,29.705-1.384,85.883
		c-14.799,10.067-32.78,14.938-49.569,22.273c-16.994,7.425-34.217,14.323-51.219,21.402c-4.121-4.083-0.333-6.327,1.488-8.528
		c24.525-29.629,49.193-59.139,73.731-88.757c5.92-7.146,11.72-14.416,17.122-21.955c2.21-3.085,3.215-7.033,4.75-10.571
		C1302.549,1836.477,1301.89,1837.014,1301.89,1837.014z"/>
	<path d="M289.414,3042.735c4.726,4.587,9.186,9.493,14.23,13.698c12.755,10.636,25.818,20.902,38.649,31.448
		c2.88,2.367,5.319,5.271,9.112,9.085c-17.908,8.157-35.279,11.96-51.997,17.576c-1.738,0.584-4.174,0.585-5.79-0.186
		c-20.25-9.656-40.287-19.7-57.739-34.348c15.58-16.32,38.161-31.441,54.194-36.647
		C290.034,3043.328,289.414,3042.735,289.414,3042.735z"/>
	<path d="M2654.163,3134.554c-17.758-0.161-30.955-12.974-31.028-29.74c-0.069-15.684,14.079-33.231,31.2-32.49
		c17.725,0.768,32.878,14.6,32.818,31.096C2687.093,3119.442,2670.919,3134.706,2654.163,3134.554z"/>
	<path d="M3273.154,3105.235c0.443,16.482-14.151,32.188-30.913,33.269c-15.949,1.028-31.865-14.457-32.27-31.396
		c-0.441-18.486,12.038-32.039,30.195-32.794C3256.427,3073.638,3272.715,3088.904,3273.154,3105.235z"/>
</g>
</svg>
